<?xml version="1.0" encoding="utf-8" standalone="no"?>
<!DOCTYPE svg PUBLIC "-//W3C//DTD SVG 1.1//EN"
  "http://www.w3.org/Graphics/SVG/1.1/DTD/svg11.dtd">
<svg xmlns:xlink="http://www.w3.org/1999/xlink" width="1197.29625pt" height="480.809388pt" viewBox="0 0 1197.29625 480.809388" xmlns="http://www.w3.org/2000/svg" version="1.1">
 <metadata>
  <rdf:RDF xmlns:dc="http://purl.org/dc/elements/1.1/" xmlns:cc="http://creativecommons.org/ns#" xmlns:rdf="http://www.w3.org/1999/02/22-rdf-syntax-ns#">
   <cc:Work>
    <dc:type rdf:resource="http://purl.org/dc/dcmitype/StillImage"/>
    <dc:date>2026-07-08T22:24:35.233529</dc:date>
    <dc:format>image/svg+xml</dc:format>
    <dc:creator>
     <cc:Agent>
      <dc:title>Matplotlib v3.10.3, https://matplotlib.org/</dc:title>
     </cc:Agent>
    </dc:creator>
   </cc:Work>
  </rdf:RDF>
 </metadata>
 <defs>
  <style type="text/css">*{stroke-linejoin: round; stroke-linecap: butt}</style>
 </defs>
 <g id="figure_1">
  <g id="patch_1">
   <path d="M 0 480.809388 
L 1197.29625 480.809388 
L 1197.29625 0 
L 0 0 
z
" style="fill: #ffffff"/>
  </g>
  <g id="axes_1">
   <g id="patch_2">
    <path d="M 56.81625 410.04 
L 1182.89625 410.04 
L 1182.89625 47.16 
L 56.81625 47.16 
z
" style="fill: #f5f5f5"/>
   </g>
   <g id="matplotlib.axis_1">
    <g id="xtick_1">
     <g id="line2d_1"/>
     <g id="text_1">
      <!-- 2010 -->
      <g transform="translate(81.339253 420.713437) scale(0.1 -0.1)">
       <defs>
        <path id="Helvetica-32" d="M 200 0 
Q 231 578 439 1006 
Q 647 1434 1250 1784 
L 1850 2131 
Q 2253 2366 2416 2531 
Q 2672 2791 2672 3125 
Q 2672 3516 2437 3745 
Q 2203 3975 1813 3975 
Q 1234 3975 1013 3538 
Q 894 3303 881 2888 
L 309 2888 
Q 319 3472 525 3841 
Q 891 4491 1816 4491 
Q 2584 4491 2939 4075 
Q 3294 3659 3294 3150 
Q 3294 2613 2916 2231 
Q 2697 2009 2131 1694 
L 1703 1456 
Q 1397 1288 1222 1134 
Q 909 863 828 531 
L 3272 531 
L 3272 0 
L 200 0 
z
" transform="scale(0.015625)"/>
        <path id="Helvetica-30" d="M 1731 4475 
Q 2600 4475 2988 3759 
Q 3288 3206 3288 2244 
Q 3288 1331 3016 734 
Q 2622 -122 1728 -122 
Q 922 -122 528 578 
Q 200 1163 200 2147 
Q 200 2909 397 3456 
Q 766 4475 1731 4475 
z
M 1725 391 
Q 2163 391 2422 778 
Q 2681 1166 2681 2222 
Q 2681 2984 2493 3476 
Q 2306 3969 1766 3969 
Q 1269 3969 1039 3501 
Q 809 3034 809 2125 
Q 809 1441 956 1025 
Q 1181 391 1725 391 
z
" transform="scale(0.015625)"/>
        <path id="Helvetica-31" d="M 613 3169 
L 613 3600 
Q 1222 3659 1462 3798 
Q 1703 3938 1822 4456 
L 2266 4456 
L 2266 0 
L 1666 0 
L 1666 3169 
L 613 3169 
z
" transform="scale(0.015625)"/>
       </defs>
       <use xlink:href="#Helvetica-32"/>
       <use xlink:href="#Helvetica-30" transform="translate(55.615234 0)"/>
       <use xlink:href="#Helvetica-31" transform="translate(111.230469 0)"/>
       <use xlink:href="#Helvetica-30" transform="translate(166.845703 0)"/>
      </g>
     </g>
    </g>
    <g id="xtick_2">
     <g id="line2d_2"/>
     <g id="text_2">
      <!-- 2011 -->
      <g transform="translate(151.658603 420.713437) scale(0.1 -0.1)">
       <use xlink:href="#Helvetica-32"/>
       <use xlink:href="#Helvetica-30" transform="translate(55.615234 0)"/>
       <use xlink:href="#Helvetica-31" transform="translate(111.230469 0)"/>
       <use xlink:href="#Helvetica-31" transform="translate(166.845703 0)"/>
      </g>
     </g>
    </g>
    <g id="xtick_3">
     <g id="line2d_3"/>
     <g id="text_3">
      <!-- 2012 -->
      <g transform="translate(221.977952 420.713437) scale(0.1 -0.1)">
       <use xlink:href="#Helvetica-32"/>
       <use xlink:href="#Helvetica-30" transform="translate(55.615234 0)"/>
       <use xlink:href="#Helvetica-31" transform="translate(111.230469 0)"/>
       <use xlink:href="#Helvetica-32" transform="translate(166.845703 0)"/>
      </g>
     </g>
    </g>
    <g id="xtick_4">
     <g id="line2d_4"/>
     <g id="text_4">
      <!-- 2013 -->
      <g transform="translate(292.297302 420.713437) scale(0.1 -0.1)">
       <defs>
        <path id="Helvetica-33" d="M 1663 -122 
Q 869 -122 511 314 
Q 153 750 153 1375 
L 741 1375 
Q 778 941 903 744 
Q 1122 391 1694 391 
Q 2138 391 2406 628 
Q 2675 866 2675 1241 
Q 2675 1703 2392 1887 
Q 2109 2072 1606 2072 
Q 1550 2072 1492 2070 
Q 1434 2069 1375 2066 
L 1375 2563 
Q 1463 2553 1522 2550 
Q 1581 2547 1650 2547 
Q 1966 2547 2169 2647 
Q 2525 2822 2525 3272 
Q 2525 3606 2287 3787 
Q 2050 3969 1734 3969 
Q 1172 3969 956 3594 
Q 838 3388 822 3006 
L 266 3006 
Q 266 3506 466 3856 
Q 809 4481 1675 4481 
Q 2359 4481 2734 4176 
Q 3109 3872 3109 3294 
Q 3109 2881 2888 2625 
Q 2750 2466 2531 2375 
Q 2884 2278 3082 2001 
Q 3281 1725 3281 1325 
Q 3281 684 2859 281 
Q 2438 -122 1663 -122 
z
" transform="scale(0.015625)"/>
       </defs>
       <use xlink:href="#Helvetica-32"/>
       <use xlink:href="#Helvetica-30" transform="translate(55.615234 0)"/>
       <use xlink:href="#Helvetica-31" transform="translate(111.230469 0)"/>
       <use xlink:href="#Helvetica-33" transform="translate(166.845703 0)"/>
      </g>
     </g>
    </g>
    <g id="xtick_5">
     <g id="line2d_5"/>
     <g id="text_5">
      <!-- 2014 -->
      <g transform="translate(362.616652 420.713437) scale(0.1 -0.1)">
       <defs>
        <path id="Helvetica-34" d="M 2116 1584 
L 2116 3613 
L 681 1584 
L 2116 1584 
z
M 2125 0 
L 2125 1094 
L 163 1094 
L 163 1644 
L 2213 4488 
L 2688 4488 
L 2688 1584 
L 3347 1584 
L 3347 1094 
L 2688 1094 
L 2688 0 
L 2125 0 
z
" transform="scale(0.015625)"/>
       </defs>
       <use xlink:href="#Helvetica-32"/>
       <use xlink:href="#Helvetica-30" transform="translate(55.615234 0)"/>
       <use xlink:href="#Helvetica-31" transform="translate(111.230469 0)"/>
       <use xlink:href="#Helvetica-34" transform="translate(166.845703 0)"/>
      </g>
     </g>
    </g>
    <g id="xtick_6">
     <g id="line2d_6"/>
     <g id="text_6">
      <!-- 2015 -->
      <g transform="translate(432.936001 420.713437) scale(0.1 -0.1)">
       <defs>
        <path id="Helvetica-35" d="M 791 1141 
Q 847 659 1238 475 
Q 1438 381 1700 381 
Q 2200 381 2440 700 
Q 2681 1019 2681 1406 
Q 2681 1875 2395 2131 
Q 2109 2388 1709 2388 
Q 1419 2388 1211 2275 
Q 1003 2163 856 1963 
L 369 1991 
L 709 4400 
L 3034 4400 
L 3034 3856 
L 1131 3856 
L 941 2613 
Q 1097 2731 1238 2791 
Q 1488 2894 1816 2894 
Q 2431 2894 2859 2497 
Q 3288 2100 3288 1491 
Q 3288 856 2895 371 
Q 2503 -113 1644 -113 
Q 1097 -113 676 195 
Q 256 503 206 1141 
L 791 1141 
z
" transform="scale(0.015625)"/>
       </defs>
       <use xlink:href="#Helvetica-32"/>
       <use xlink:href="#Helvetica-30" transform="translate(55.615234 0)"/>
       <use xlink:href="#Helvetica-31" transform="translate(111.230469 0)"/>
       <use xlink:href="#Helvetica-35" transform="translate(166.845703 0)"/>
      </g>
     </g>
    </g>
    <g id="xtick_7">
     <g id="line2d_7"/>
     <g id="text_7">
      <!-- 2016 -->
      <g transform="translate(503.255351 420.713437) scale(0.1 -0.1)">
       <defs>
        <path id="Helvetica-36" d="M 1872 4494 
Q 2622 4494 2917 4105 
Q 3213 3716 3213 3303 
L 2656 3303 
Q 2606 3569 2497 3719 
Q 2294 4000 1881 4000 
Q 1409 4000 1131 3564 
Q 853 3128 822 2316 
Q 1016 2600 1309 2741 
Q 1578 2866 1909 2866 
Q 2472 2866 2890 2506 
Q 3309 2147 3309 1434 
Q 3309 825 2912 354 
Q 2516 -116 1781 -116 
Q 1153 -116 697 361 
Q 241 838 241 1966 
Q 241 2800 444 3381 
Q 834 4494 1872 4494 
z
M 1831 384 
Q 2275 384 2495 682 
Q 2716 981 2716 1388 
Q 2716 1731 2519 2042 
Q 2322 2353 1803 2353 
Q 1441 2353 1167 2112 
Q 894 1872 894 1388 
Q 894 963 1142 673 
Q 1391 384 1831 384 
z
" transform="scale(0.015625)"/>
       </defs>
       <use xlink:href="#Helvetica-32"/>
       <use xlink:href="#Helvetica-30" transform="translate(55.615234 0)"/>
       <use xlink:href="#Helvetica-31" transform="translate(111.230469 0)"/>
       <use xlink:href="#Helvetica-36" transform="translate(166.845703 0)"/>
      </g>
     </g>
    </g>
    <g id="xtick_8">
     <g id="line2d_8"/>
     <g id="text_8">
      <!-- 2017 -->
      <g transform="translate(573.5747 420.713437) scale(0.1 -0.1)">
       <defs>
        <path id="Helvetica-37" d="M 3347 4400 
L 3347 3909 
Q 3131 3700 2773 3181 
Q 2416 2663 2141 2063 
Q 1869 1478 1728 997 
Q 1638 688 1494 0 
L 872 0 
Q 1084 1281 1809 2550 
Q 2238 3294 2709 3834 
L 234 3834 
L 234 4400 
L 3347 4400 
z
" transform="scale(0.015625)"/>
       </defs>
       <use xlink:href="#Helvetica-32"/>
       <use xlink:href="#Helvetica-30" transform="translate(55.615234 0)"/>
       <use xlink:href="#Helvetica-31" transform="translate(111.230469 0)"/>
       <use xlink:href="#Helvetica-37" transform="translate(166.845703 0)"/>
      </g>
     </g>
    </g>
    <g id="xtick_9">
     <g id="line2d_9"/>
     <g id="text_9">
      <!-- 2018 -->
      <g transform="translate(643.89405 420.713437) scale(0.1 -0.1)">
       <defs>
        <path id="Helvetica-38" d="M 1741 2600 
Q 2113 2600 2322 2808 
Q 2531 3016 2531 3303 
Q 2531 3553 2331 3762 
Q 2131 3972 1722 3972 
Q 1316 3972 1134 3762 
Q 953 3553 953 3272 
Q 953 2956 1187 2778 
Q 1422 2600 1741 2600 
z
M 1775 384 
Q 2166 384 2423 595 
Q 2681 806 2681 1225 
Q 2681 1659 2415 1884 
Q 2150 2109 1734 2109 
Q 1331 2109 1076 1879 
Q 822 1650 822 1244 
Q 822 894 1055 639 
Q 1288 384 1775 384 
z
M 975 2384 
Q 741 2484 609 2619 
Q 363 2869 363 3269 
Q 363 3769 725 4128 
Q 1088 4488 1753 4488 
Q 2397 4488 2762 4148 
Q 3128 3809 3128 3356 
Q 3128 2938 2916 2678 
Q 2797 2531 2547 2391 
Q 2825 2263 2984 2097 
Q 3281 1784 3281 1284 
Q 3281 694 2884 283 
Q 2488 -128 1763 -128 
Q 1109 -128 657 226 
Q 206 581 206 1256 
Q 206 1653 400 1942 
Q 594 2231 975 2384 
z
" transform="scale(0.015625)"/>
       </defs>
       <use xlink:href="#Helvetica-32"/>
       <use xlink:href="#Helvetica-30" transform="translate(55.615234 0)"/>
       <use xlink:href="#Helvetica-31" transform="translate(111.230469 0)"/>
       <use xlink:href="#Helvetica-38" transform="translate(166.845703 0)"/>
      </g>
     </g>
    </g>
    <g id="xtick_10">
     <g id="line2d_10"/>
     <g id="text_10">
      <!-- 2019 -->
      <g transform="translate(714.213399 420.713437) scale(0.1 -0.1)">
       <defs>
        <path id="Helvetica-39" d="M 850 1081 
Q 875 616 1209 438 
Q 1381 344 1597 344 
Q 2000 344 2284 680 
Q 2569 1016 2688 2044 
Q 2500 1747 2223 1626 
Q 1947 1506 1628 1506 
Q 981 1506 604 1909 
Q 228 2313 228 2947 
Q 228 3556 600 4018 
Q 972 4481 1697 4481 
Q 2675 4481 3047 3600 
Q 3253 3116 3253 2388 
Q 3253 1566 3006 931 
Q 2597 -125 1619 -125 
Q 963 -125 622 219 
Q 281 563 281 1081 
L 850 1081 
z
M 1703 2000 
Q 2038 2000 2314 2220 
Q 2591 2441 2591 2991 
Q 2591 3484 2342 3726 
Q 2094 3969 1709 3969 
Q 1297 3969 1055 3692 
Q 813 3416 813 2953 
Q 813 2516 1025 2258 
Q 1238 2000 1703 2000 
z
" transform="scale(0.015625)"/>
       </defs>
       <use xlink:href="#Helvetica-32"/>
       <use xlink:href="#Helvetica-30" transform="translate(55.615234 0)"/>
       <use xlink:href="#Helvetica-31" transform="translate(111.230469 0)"/>
       <use xlink:href="#Helvetica-39" transform="translate(166.845703 0)"/>
      </g>
     </g>
    </g>
    <g id="xtick_11">
     <g id="line2d_11"/>
     <g id="text_11">
      <!-- 2020 -->
      <g transform="translate(784.532749 420.713437) scale(0.1 -0.1)">
       <use xlink:href="#Helvetica-32"/>
       <use xlink:href="#Helvetica-30" transform="translate(55.615234 0)"/>
       <use xlink:href="#Helvetica-32" transform="translate(111.230469 0)"/>
       <use xlink:href="#Helvetica-30" transform="translate(166.845703 0)"/>
      </g>
     </g>
    </g>
    <g id="xtick_12">
     <g id="line2d_12"/>
     <g id="text_12">
      <!-- 2021 -->
      <g transform="translate(854.852098 420.713437) scale(0.1 -0.1)">
       <use xlink:href="#Helvetica-32"/>
       <use xlink:href="#Helvetica-30" transform="translate(55.615234 0)"/>
       <use xlink:href="#Helvetica-32" transform="translate(111.230469 0)"/>
       <use xlink:href="#Helvetica-31" transform="translate(166.845703 0)"/>
      </g>
     </g>
    </g>
    <g id="xtick_13">
     <g id="line2d_13"/>
     <g id="text_13">
      <!-- 2022 -->
      <g transform="translate(925.171448 420.713437) scale(0.1 -0.1)">
       <use xlink:href="#Helvetica-32"/>
       <use xlink:href="#Helvetica-30" transform="translate(55.615234 0)"/>
       <use xlink:href="#Helvetica-32" transform="translate(111.230469 0)"/>
       <use xlink:href="#Helvetica-32" transform="translate(166.845703 0)"/>
      </g>
     </g>
    </g>
    <g id="xtick_14">
     <g id="line2d_14"/>
     <g id="text_14">
      <!-- 2023 -->
      <g transform="translate(995.490798 420.713437) scale(0.1 -0.1)">
       <use xlink:href="#Helvetica-32"/>
       <use xlink:href="#Helvetica-30" transform="translate(55.615234 0)"/>
       <use xlink:href="#Helvetica-32" transform="translate(111.230469 0)"/>
       <use xlink:href="#Helvetica-33" transform="translate(166.845703 0)"/>
      </g>
     </g>
    </g>
    <g id="xtick_15">
     <g id="line2d_15"/>
     <g id="text_15">
      <!-- 2024 -->
      <g transform="translate(1065.810147 420.713437) scale(0.1 -0.1)">
       <use xlink:href="#Helvetica-32"/>
       <use xlink:href="#Helvetica-30" transform="translate(55.615234 0)"/>
       <use xlink:href="#Helvetica-32" transform="translate(111.230469 0)"/>
       <use xlink:href="#Helvetica-34" transform="translate(166.845703 0)"/>
      </g>
     </g>
    </g>
    <g id="xtick_16">
     <g id="line2d_16"/>
     <g id="text_16">
      <!-- 2025 -->
      <g transform="translate(1136.129497 420.713437) scale(0.1 -0.1)">
       <use xlink:href="#Helvetica-32"/>
       <use xlink:href="#Helvetica-30" transform="translate(55.615234 0)"/>
       <use xlink:href="#Helvetica-32" transform="translate(111.230469 0)"/>
       <use xlink:href="#Helvetica-35" transform="translate(166.845703 0)"/>
      </g>
     </g>
    </g>
    <g id="xtick_17">
     <g id="line2d_17">
      <path d="M 127.620803 410.04 
L 127.620803 47.16 
" clip-path="url(#pe74c5ddf8f)" style="fill: none; stroke-dasharray: 1.85,0.8; stroke-dashoffset: 0; stroke: #696969; stroke-width: 0.5"/>
     </g>
     <g id="line2d_18">
      <defs>
       <path id="m9bb85ccba0" d="M 0 0 
L 0 2 
" style="stroke: #808080; stroke-width: 0.6"/>
      </defs>
      <g>
       <use xlink:href="#m9bb85ccba0" x="127.620803" y="410.04" style="fill: #808080; stroke: #808080; stroke-width: 0.6"/>
      </g>
     </g>
    </g>
    <g id="xtick_18">
     <g id="line2d_19">
      <path d="M 197.940153 410.04 
L 197.940153 47.16 
" clip-path="url(#pe74c5ddf8f)" style="fill: none; stroke-dasharray: 1.85,0.8; stroke-dashoffset: 0; stroke: #696969; stroke-width: 0.5"/>
     </g>
     <g id="line2d_20">
      <g>
       <use xlink:href="#m9bb85ccba0" x="197.940153" y="410.04" style="fill: #808080; stroke: #808080; stroke-width: 0.6"/>
      </g>
     </g>
    </g>
    <g id="xtick_19">
     <g id="line2d_21">
      <path d="M 268.259502 410.04 
L 268.259502 47.16 
" clip-path="url(#pe74c5ddf8f)" style="fill: none; stroke-dasharray: 1.85,0.8; stroke-dashoffset: 0; stroke: #696969; stroke-width: 0.5"/>
     </g>
     <g id="line2d_22">
      <g>
       <use xlink:href="#m9bb85ccba0" x="268.259502" y="410.04" style="fill: #808080; stroke: #808080; stroke-width: 0.6"/>
      </g>
     </g>
    </g>
    <g id="xtick_20">
     <g id="line2d_23">
      <path d="M 338.578852 410.04 
L 338.578852 47.16 
" clip-path="url(#pe74c5ddf8f)" style="fill: none; stroke-dasharray: 1.85,0.8; stroke-dashoffset: 0; stroke: #696969; stroke-width: 0.5"/>
     </g>
     <g id="line2d_24">
      <g>
       <use xlink:href="#m9bb85ccba0" x="338.578852" y="410.04" style="fill: #808080; stroke: #808080; stroke-width: 0.6"/>
      </g>
     </g>
    </g>
    <g id="xtick_21">
     <g id="line2d_25">
      <path d="M 408.898201 410.04 
L 408.898201 47.16 
" clip-path="url(#pe74c5ddf8f)" style="fill: none; stroke-dasharray: 1.85,0.8; stroke-dashoffset: 0; stroke: #696969; stroke-width: 0.5"/>
     </g>
     <g id="line2d_26">
      <g>
       <use xlink:href="#m9bb85ccba0" x="408.898201" y="410.04" style="fill: #808080; stroke: #808080; stroke-width: 0.6"/>
      </g>
     </g>
    </g>
    <g id="xtick_22">
     <g id="line2d_27">
      <path d="M 479.217551 410.04 
L 479.217551 47.16 
" clip-path="url(#pe74c5ddf8f)" style="fill: none; stroke-dasharray: 1.85,0.8; stroke-dashoffset: 0; stroke: #696969; stroke-width: 0.5"/>
     </g>
     <g id="line2d_28">
      <g>
       <use xlink:href="#m9bb85ccba0" x="479.217551" y="410.04" style="fill: #808080; stroke: #808080; stroke-width: 0.6"/>
      </g>
     </g>
    </g>
    <g id="xtick_23">
     <g id="line2d_29">
      <path d="M 549.5369 410.04 
L 549.5369 47.16 
" clip-path="url(#pe74c5ddf8f)" style="fill: none; stroke-dasharray: 1.85,0.8; stroke-dashoffset: 0; stroke: #696969; stroke-width: 0.5"/>
     </g>
     <g id="line2d_30">
      <g>
       <use xlink:href="#m9bb85ccba0" x="549.5369" y="410.04" style="fill: #808080; stroke: #808080; stroke-width: 0.6"/>
      </g>
     </g>
    </g>
    <g id="xtick_24">
     <g id="line2d_31">
      <path d="M 619.85625 410.04 
L 619.85625 47.16 
" clip-path="url(#pe74c5ddf8f)" style="fill: none; stroke-dasharray: 1.85,0.8; stroke-dashoffset: 0; stroke: #696969; stroke-width: 0.5"/>
     </g>
     <g id="line2d_32">
      <g>
       <use xlink:href="#m9bb85ccba0" x="619.85625" y="410.04" style="fill: #808080; stroke: #808080; stroke-width: 0.6"/>
      </g>
     </g>
    </g>
    <g id="xtick_25">
     <g id="line2d_33">
      <path d="M 690.1756 410.04 
L 690.1756 47.16 
" clip-path="url(#pe74c5ddf8f)" style="fill: none; stroke-dasharray: 1.85,0.8; stroke-dashoffset: 0; stroke: #696969; stroke-width: 0.5"/>
     </g>
     <g id="line2d_34">
      <g>
       <use xlink:href="#m9bb85ccba0" x="690.1756" y="410.04" style="fill: #808080; stroke: #808080; stroke-width: 0.6"/>
      </g>
     </g>
    </g>
    <g id="xtick_26">
     <g id="line2d_35">
      <path d="M 760.494949 410.04 
L 760.494949 47.16 
" clip-path="url(#pe74c5ddf8f)" style="fill: none; stroke-dasharray: 1.85,0.8; stroke-dashoffset: 0; stroke: #696969; stroke-width: 0.5"/>
     </g>
     <g id="line2d_36">
      <g>
       <use xlink:href="#m9bb85ccba0" x="760.494949" y="410.04" style="fill: #808080; stroke: #808080; stroke-width: 0.6"/>
      </g>
     </g>
    </g>
    <g id="xtick_27">
     <g id="line2d_37">
      <path d="M 830.814299 410.04 
L 830.814299 47.16 
" clip-path="url(#pe74c5ddf8f)" style="fill: none; stroke-dasharray: 1.85,0.8; stroke-dashoffset: 0; stroke: #696969; stroke-width: 0.5"/>
     </g>
     <g id="line2d_38">
      <g>
       <use xlink:href="#m9bb85ccba0" x="830.814299" y="410.04" style="fill: #808080; stroke: #808080; stroke-width: 0.6"/>
      </g>
     </g>
    </g>
    <g id="xtick_28">
     <g id="line2d_39">
      <path d="M 901.133648 410.04 
L 901.133648 47.16 
" clip-path="url(#pe74c5ddf8f)" style="fill: none; stroke-dasharray: 1.85,0.8; stroke-dashoffset: 0; stroke: #696969; stroke-width: 0.5"/>
     </g>
     <g id="line2d_40">
      <g>
       <use xlink:href="#m9bb85ccba0" x="901.133648" y="410.04" style="fill: #808080; stroke: #808080; stroke-width: 0.6"/>
      </g>
     </g>
    </g>
    <g id="xtick_29">
     <g id="line2d_41">
      <path d="M 971.452998 410.04 
L 971.452998 47.16 
" clip-path="url(#pe74c5ddf8f)" style="fill: none; stroke-dasharray: 1.85,0.8; stroke-dashoffset: 0; stroke: #696969; stroke-width: 0.5"/>
     </g>
     <g id="line2d_42">
      <g>
       <use xlink:href="#m9bb85ccba0" x="971.452998" y="410.04" style="fill: #808080; stroke: #808080; stroke-width: 0.6"/>
      </g>
     </g>
    </g>
    <g id="xtick_30">
     <g id="line2d_43">
      <path d="M 1041.772347 410.04 
L 1041.772347 47.16 
" clip-path="url(#pe74c5ddf8f)" style="fill: none; stroke-dasharray: 1.85,0.8; stroke-dashoffset: 0; stroke: #696969; stroke-width: 0.5"/>
     </g>
     <g id="line2d_44">
      <g>
       <use xlink:href="#m9bb85ccba0" x="1041.772347" y="410.04" style="fill: #808080; stroke: #808080; stroke-width: 0.6"/>
      </g>
     </g>
    </g>
    <g id="xtick_31">
     <g id="line2d_45">
      <path d="M 1112.091697 410.04 
L 1112.091697 47.16 
" clip-path="url(#pe74c5ddf8f)" style="fill: none; stroke-dasharray: 1.85,0.8; stroke-dashoffset: 0; stroke: #696969; stroke-width: 0.5"/>
     </g>
     <g id="line2d_46">
      <g>
       <use xlink:href="#m9bb85ccba0" x="1112.091697" y="410.04" style="fill: #808080; stroke: #808080; stroke-width: 0.6"/>
      </g>
     </g>
    </g>
    <g id="text_17">
     <!-- Year -->
     <g transform="translate(607.183125 435.405937) scale(0.12 -0.12)">
      <defs>
       <path id="Helvetica-59" d="M 131 4591 
L 856 4591 
L 2175 2384 
L 3494 4591 
L 4222 4591 
L 2488 1850 
L 2488 0 
L 1866 0 
L 1866 1850 
L 131 4591 
z
M 2184 4591 
L 2184 4591 
z
" transform="scale(0.015625)"/>
       <path id="Helvetica-65" d="M 1806 3422 
Q 2163 3422 2497 3255 
Q 2831 3088 3006 2822 
Q 3175 2569 3231 2231 
Q 3281 2000 3281 1494 
L 828 1494 
Q 844 984 1069 676 
Q 1294 369 1766 369 
Q 2206 369 2469 659 
Q 2619 828 2681 1050 
L 3234 1050 
Q 3213 866 3089 639 
Q 2966 413 2813 269 
Q 2556 19 2178 -69 
Q 1975 -119 1719 -119 
Q 1094 -119 659 336 
Q 225 791 225 1609 
Q 225 2416 662 2919 
Q 1100 3422 1806 3422 
z
M 2703 1941 
Q 2669 2306 2544 2525 
Q 2313 2931 1772 2931 
Q 1384 2931 1121 2651 
Q 859 2372 844 1941 
L 2703 1941 
z
M 1753 3428 
L 1753 3428 
z
" transform="scale(0.015625)"/>
       <path id="Helvetica-61" d="M 844 891 
Q 844 647 1022 506 
Q 1200 366 1444 366 
Q 1741 366 2019 503 
Q 2488 731 2488 1250 
L 2488 1703 
Q 2384 1638 2221 1594 
Q 2059 1550 1903 1531 
L 1563 1488 
Q 1256 1447 1103 1359 
Q 844 1213 844 891 
z
M 2206 2028 
Q 2400 2053 2466 2191 
Q 2503 2266 2503 2406 
Q 2503 2694 2298 2823 
Q 2094 2953 1713 2953 
Q 1272 2953 1088 2716 
Q 984 2584 953 2325 
L 428 2325 
Q 444 2944 830 3186 
Q 1216 3428 1725 3428 
Q 2316 3428 2684 3203 
Q 3050 2978 3050 2503 
L 3050 575 
Q 3050 488 3086 434 
Q 3122 381 3238 381 
Q 3275 381 3322 386 
Q 3369 391 3422 400 
L 3422 -16 
Q 3291 -53 3222 -62 
Q 3153 -72 3034 -72 
Q 2744 -72 2613 134 
Q 2544 244 2516 444 
Q 2344 219 2022 53 
Q 1700 -113 1313 -113 
Q 847 -113 551 170 
Q 256 453 256 878 
Q 256 1344 547 1600 
Q 838 1856 1309 1916 
L 2206 2028 
z
M 1741 3428 
L 1741 3428 
z
" transform="scale(0.015625)"/>
       <path id="Helvetica-72" d="M 428 3347 
L 963 3347 
L 963 2769 
Q 1028 2938 1284 3180 
Q 1541 3422 1875 3422 
Q 1891 3422 1928 3419 
Q 1966 3416 2056 3406 
L 2056 2813 
Q 2006 2822 1964 2825 
Q 1922 2828 1872 2828 
Q 1447 2828 1219 2554 
Q 991 2281 991 1925 
L 991 0 
L 428 0 
L 428 3347 
z
" transform="scale(0.015625)"/>
      </defs>
      <use xlink:href="#Helvetica-59"/>
      <use xlink:href="#Helvetica-65" transform="translate(66.699219 0)"/>
      <use xlink:href="#Helvetica-61" transform="translate(122.314453 0)"/>
      <use xlink:href="#Helvetica-72" transform="translate(177.929688 0)"/>
     </g>
    </g>
   </g>
   <g id="matplotlib.axis_2">
    <g id="ytick_1">
     <g id="line2d_47">
      <defs>
       <path id="m75bb3e336a" d="M 0 0 
L -3.5 0 
" style="stroke: #808080; stroke-width: 0.8"/>
      </defs>
      <g>
       <use xlink:href="#m75bb3e336a" x="56.81625" y="410.04" style="fill: #808080; stroke: #808080; stroke-width: 0.8"/>
      </g>
     </g>
     <g id="text_18">
      <!-- -200 -->
      <g transform="translate(29.80375 413.626719) scale(0.1 -0.1)">
       <defs>
        <path id="Helvetica-2d" d="M 266 2072 
L 1834 2072 
L 1834 1494 
L 266 1494 
L 266 2072 
z
" transform="scale(0.015625)"/>
       </defs>
       <use xlink:href="#Helvetica-2d"/>
       <use xlink:href="#Helvetica-32" transform="translate(33.300781 0)"/>
       <use xlink:href="#Helvetica-30" transform="translate(88.916016 0)"/>
       <use xlink:href="#Helvetica-30" transform="translate(144.53125 0)"/>
      </g>
     </g>
    </g>
    <g id="ytick_2">
     <g id="line2d_48">
      <g>
       <use xlink:href="#m75bb3e336a" x="56.81625" y="337.464" style="fill: #808080; stroke: #808080; stroke-width: 0.8"/>
      </g>
     </g>
     <g id="text_19">
      <!-- -100 -->
      <g transform="translate(29.80375 341.050719) scale(0.1 -0.1)">
       <use xlink:href="#Helvetica-2d"/>
       <use xlink:href="#Helvetica-31" transform="translate(33.300781 0)"/>
       <use xlink:href="#Helvetica-30" transform="translate(88.916016 0)"/>
       <use xlink:href="#Helvetica-30" transform="translate(144.53125 0)"/>
      </g>
     </g>
    </g>
    <g id="ytick_3">
     <g id="line2d_49">
      <g>
       <use xlink:href="#m75bb3e336a" x="56.81625" y="264.888" style="fill: #808080; stroke: #808080; stroke-width: 0.8"/>
      </g>
     </g>
     <g id="text_20">
      <!-- 0 -->
      <g transform="translate(44.255313 268.474719) scale(0.1 -0.1)">
       <use xlink:href="#Helvetica-30"/>
      </g>
     </g>
    </g>
    <g id="ytick_4">
     <g id="line2d_50">
      <g>
       <use xlink:href="#m75bb3e336a" x="56.81625" y="192.312" style="fill: #808080; stroke: #808080; stroke-width: 0.8"/>
      </g>
     </g>
     <g id="text_21">
      <!-- 100 -->
      <g transform="translate(33.133437 195.898719) scale(0.1 -0.1)">
       <use xlink:href="#Helvetica-31"/>
       <use xlink:href="#Helvetica-30" transform="translate(55.615234 0)"/>
       <use xlink:href="#Helvetica-30" transform="translate(111.230469 0)"/>
      </g>
     </g>
    </g>
    <g id="ytick_5">
     <g id="line2d_51">
      <g>
       <use xlink:href="#m75bb3e336a" x="56.81625" y="119.736" style="fill: #808080; stroke: #808080; stroke-width: 0.8"/>
      </g>
     </g>
     <g id="text_22">
      <!-- 200 -->
      <g transform="translate(33.133437 123.322719) scale(0.1 -0.1)">
       <use xlink:href="#Helvetica-32"/>
       <use xlink:href="#Helvetica-30" transform="translate(55.615234 0)"/>
       <use xlink:href="#Helvetica-30" transform="translate(111.230469 0)"/>
      </g>
     </g>
    </g>
    <g id="ytick_6">
     <g id="line2d_52">
      <g>
       <use xlink:href="#m75bb3e336a" x="56.81625" y="47.16" style="fill: #808080; stroke: #808080; stroke-width: 0.8"/>
      </g>
     </g>
     <g id="text_23">
      <!-- 300 -->
      <g transform="translate(33.133437 50.746719) scale(0.1 -0.1)">
       <use xlink:href="#Helvetica-33"/>
       <use xlink:href="#Helvetica-30" transform="translate(55.615234 0)"/>
       <use xlink:href="#Helvetica-30" transform="translate(111.230469 0)"/>
      </g>
     </g>
    </g>
    <g id="text_24">
     <!-- Megatonne per year (Mt/yr) -->
     <g transform="translate(23.14875 301.288125) rotate(-90) scale(0.12 -0.12)">
      <defs>
       <path id="Helvetica-4d" d="M 472 4591 
L 1363 4591 
L 2681 709 
L 3991 4591 
L 4872 4591 
L 4872 0 
L 4281 0 
L 4281 2709 
Q 4281 2850 4287 3175 
Q 4294 3500 4294 3872 
L 2984 0 
L 2369 0 
L 1050 3872 
L 1050 3731 
Q 1050 3563 1058 3217 
Q 1066 2872 1066 2709 
L 1066 0 
L 472 0 
L 472 4591 
z
" transform="scale(0.015625)"/>
       <path id="Helvetica-67" d="M 1594 3406 
Q 1988 3406 2281 3213 
Q 2441 3103 2606 2894 
L 2606 3316 
L 3125 3316 
L 3125 272 
Q 3125 -366 2938 -734 
Q 2588 -1416 1616 -1416 
Q 1075 -1416 706 -1173 
Q 338 -931 294 -416 
L 866 -416 
Q 906 -641 1028 -763 
Q 1219 -950 1628 -950 
Q 2275 -950 2475 -494 
Q 2594 -225 2584 466 
Q 2416 209 2178 84 
Q 1941 -41 1550 -41 
Q 1006 -41 598 345 
Q 191 731 191 1622 
Q 191 2463 602 2934 
Q 1013 3406 1594 3406 
z
M 2606 1688 
Q 2606 2309 2350 2609 
Q 2094 2909 1697 2909 
Q 1103 2909 884 2353 
Q 769 2056 769 1575 
Q 769 1009 998 714 
Q 1228 419 1616 419 
Q 2222 419 2469 966 
Q 2606 1275 2606 1688 
z
M 1659 3428 
L 1659 3428 
z
" transform="scale(0.015625)"/>
       <path id="Helvetica-74" d="M 525 4281 
L 1094 4281 
L 1094 3347 
L 1628 3347 
L 1628 2888 
L 1094 2888 
L 1094 703 
Q 1094 528 1213 469 
Q 1278 434 1431 434 
Q 1472 434 1519 436 
Q 1566 438 1628 444 
L 1628 0 
Q 1531 -28 1426 -40 
Q 1322 -53 1200 -53 
Q 806 -53 665 148 
Q 525 350 525 672 
L 525 2888 
L 72 2888 
L 72 3347 
L 525 3347 
L 525 4281 
z
" transform="scale(0.015625)"/>
       <path id="Helvetica-6f" d="M 1741 363 
Q 2300 363 2508 786 
Q 2716 1209 2716 1728 
Q 2716 2197 2566 2491 
Q 2328 2953 1747 2953 
Q 1231 2953 997 2559 
Q 763 2166 763 1609 
Q 763 1075 997 719 
Q 1231 363 1741 363 
z
M 1763 3444 
Q 2409 3444 2856 3012 
Q 3303 2581 3303 1744 
Q 3303 934 2909 406 
Q 2516 -122 1688 -122 
Q 997 -122 590 345 
Q 184 813 184 1600 
Q 184 2444 612 2944 
Q 1041 3444 1763 3444 
z
M 1744 3428 
L 1744 3428 
z
" transform="scale(0.015625)"/>
       <path id="Helvetica-6e" d="M 413 3347 
L 947 3347 
L 947 2872 
Q 1184 3166 1450 3294 
Q 1716 3422 2041 3422 
Q 2753 3422 3003 2925 
Q 3141 2653 3141 2147 
L 3141 0 
L 2569 0 
L 2569 2109 
Q 2569 2416 2478 2603 
Q 2328 2916 1934 2916 
Q 1734 2916 1606 2875 
Q 1375 2806 1200 2600 
Q 1059 2434 1017 2257 
Q 975 2081 975 1753 
L 975 0 
L 413 0 
L 413 3347 
z
M 1734 3428 
L 1734 3428 
z
" transform="scale(0.015625)"/>
       <path id="Helvetica-20" transform="scale(0.015625)"/>
       <path id="Helvetica-70" d="M 1825 378 
Q 2219 378 2480 708 
Q 2741 1038 2741 1694 
Q 2741 2094 2625 2381 
Q 2406 2934 1825 2934 
Q 1241 2934 1025 2350 
Q 909 2038 909 1556 
Q 909 1169 1025 897 
Q 1244 378 1825 378 
z
M 369 3331 
L 916 3331 
L 916 2888 
Q 1084 3116 1284 3241 
Q 1569 3428 1953 3428 
Q 2522 3428 2919 2992 
Q 3316 2556 3316 1747 
Q 3316 653 2744 184 
Q 2381 -113 1900 -113 
Q 1522 -113 1266 53 
Q 1116 147 931 375 
L 931 -1334 
L 369 -1334 
L 369 3331 
z
" transform="scale(0.015625)"/>
       <path id="Helvetica-79" d="M 2503 3347 
L 3125 3347 
Q 3006 3025 2597 1878 
Q 2291 1016 2084 472 
Q 1597 -809 1397 -1090 
Q 1197 -1372 709 -1372 
Q 591 -1372 527 -1362 
Q 463 -1353 369 -1328 
L 369 -816 
Q 516 -856 581 -865 
Q 647 -875 697 -875 
Q 853 -875 926 -823 
Q 1000 -772 1050 -697 
Q 1066 -672 1162 -440 
Q 1259 -209 1303 -97 
L 66 3347 
L 703 3347 
L 1600 622 
L 2503 3347 
z
M 1597 3428 
L 1597 3428 
z
" transform="scale(0.015625)"/>
       <path id="Helvetica-28" d="M 1894 4666 
Q 1403 3713 1256 3263 
Q 1034 2578 1034 1681 
Q 1034 775 1288 25 
Q 1444 -438 1903 -1306 
L 1525 -1306 
Q 1069 -594 959 -397 
Q 850 -200 722 138 
Q 547 600 478 1125 
Q 444 1397 444 1644 
Q 444 2569 734 3291 
Q 919 3750 1503 4666 
L 1894 4666 
z
" transform="scale(0.015625)"/>
       <path id="Helvetica-2f" d="M 1456 4591 
L 1931 4591 
L 475 0 
L 0 0 
L 1456 4591 
z
" transform="scale(0.015625)"/>
       <path id="Helvetica-29" d="M 222 -1306 
Q 719 -338 863 106 
Q 1081 778 1081 1681 
Q 1081 2584 828 3334 
Q 672 3797 213 4666 
L 591 4666 
Q 1072 3897 1173 3717 
Q 1275 3538 1394 3222 
Q 1544 2831 1608 2450 
Q 1672 2069 1672 1716 
Q 1672 791 1378 66 
Q 1194 -400 613 -1306 
L 222 -1306 
z
" transform="scale(0.015625)"/>
      </defs>
      <use xlink:href="#Helvetica-4d"/>
      <use xlink:href="#Helvetica-65" transform="translate(83.300781 0)"/>
      <use xlink:href="#Helvetica-67" transform="translate(138.916016 0)"/>
      <use xlink:href="#Helvetica-61" transform="translate(194.53125 0)"/>
      <use xlink:href="#Helvetica-74" transform="translate(250.146484 0)"/>
      <use xlink:href="#Helvetica-6f" transform="translate(277.929688 0)"/>
      <use xlink:href="#Helvetica-6e" transform="translate(333.544922 0)"/>
      <use xlink:href="#Helvetica-6e" transform="translate(389.160156 0)"/>
      <use xlink:href="#Helvetica-65" transform="translate(444.775391 0)"/>
      <use xlink:href="#Helvetica-20" transform="translate(500.390625 0)"/>
      <use xlink:href="#Helvetica-70" transform="translate(528.173828 0)"/>
      <use xlink:href="#Helvetica-65" transform="translate(583.789062 0)"/>
      <use xlink:href="#Helvetica-72" transform="translate(639.404297 0)"/>
      <use xlink:href="#Helvetica-20" transform="translate(672.705078 0)"/>
      <use xlink:href="#Helvetica-79" transform="translate(700.488281 0)"/>
      <use xlink:href="#Helvetica-65" transform="translate(750.488281 0)"/>
      <use xlink:href="#Helvetica-61" transform="translate(806.103516 0)"/>
      <use xlink:href="#Helvetica-72" transform="translate(861.71875 0)"/>
      <use xlink:href="#Helvetica-20" transform="translate(895.019531 0)"/>
      <use xlink:href="#Helvetica-28" transform="translate(922.802734 0)"/>
      <use xlink:href="#Helvetica-4d" transform="translate(956.103516 0)"/>
      <use xlink:href="#Helvetica-74" transform="translate(1039.404297 0)"/>
      <use xlink:href="#Helvetica-2f" transform="translate(1067.1875 0)"/>
      <use xlink:href="#Helvetica-79" transform="translate(1094.970703 0)"/>
      <use xlink:href="#Helvetica-72" transform="translate(1144.970703 0)"/>
      <use xlink:href="#Helvetica-29" transform="translate(1178.271484 0)"/>
     </g>
    </g>
   </g>
   <g id="patch_3">
    <path d="M 59.059437 264.888 
L 125.862819 264.888 
L 125.862819 227.014749 
L 59.059437 227.014749 
z
" clip-path="url(#pe74c5ddf8f)" style="fill: #708090; stroke: #000000; stroke-width: 0.4; stroke-linejoin: miter"/>
   </g>
   <g id="patch_4">
    <path d="M 129.378787 264.888 
L 196.182169 264.888 
L 196.182169 216.203105 
L 129.378787 216.203105 
z
" clip-path="url(#pe74c5ddf8f)" style="fill: #708090; stroke: #000000; stroke-width: 0.4; stroke-linejoin: miter"/>
   </g>
   <g id="patch_5">
    <path d="M 199.698136 264.888 
L 266.501518 264.888 
L 266.501518 177.932222 
L 199.698136 177.932222 
z
" clip-path="url(#pe74c5ddf8f)" style="fill: #708090; stroke: #000000; stroke-width: 0.4; stroke-linejoin: miter"/>
   </g>
   <g id="patch_6">
    <path d="M 270.017486 264.888 
L 336.820868 264.888 
L 336.820868 216.291687 
L 270.017486 216.291687 
z
" clip-path="url(#pe74c5ddf8f)" style="fill: #708090; stroke: #000000; stroke-width: 0.4; stroke-linejoin: miter"/>
   </g>
   <g id="patch_7">
    <path d="M 340.336835 264.888 
L 407.140218 264.888 
L 407.140218 155.850912 
L 340.336835 155.850912 
z
" clip-path="url(#pe74c5ddf8f)" style="fill: #708090; stroke: #000000; stroke-width: 0.4; stroke-linejoin: miter"/>
   </g>
   <g id="patch_8">
    <path d="M 410.656185 264.888 
L 477.459567 264.888 
L 477.459567 213.792675 
L 410.656185 213.792675 
z
" clip-path="url(#pe74c5ddf8f)" style="fill: #708090; stroke: #000000; stroke-width: 0.4; stroke-linejoin: miter"/>
   </g>
   <g id="patch_9">
    <path d="M 480.975535 264.888 
L 547.778917 264.888 
L 547.778917 195.199762 
L 480.975535 195.199762 
z
" clip-path="url(#pe74c5ddf8f)" style="fill: #708090; stroke: #000000; stroke-width: 0.4; stroke-linejoin: miter"/>
   </g>
   <g id="patch_10">
    <path d="M 551.294884 264.888 
L 618.098266 264.888 
L 618.098266 210.14752 
L 551.294884 210.14752 
z
" clip-path="url(#pe74c5ddf8f)" style="fill: #708090; stroke: #000000; stroke-width: 0.4; stroke-linejoin: miter"/>
   </g>
   <g id="patch_11">
    <path d="M 621.614234 264.888 
L 688.417616 264.888 
L 688.417616 193.596265 
L 621.614234 193.596265 
z
" clip-path="url(#pe74c5ddf8f)" style="fill: #708090; stroke: #000000; stroke-width: 0.4; stroke-linejoin: miter"/>
   </g>
   <g id="patch_12">
    <path d="M 691.933583 264.888 
L 758.736965 264.888 
L 758.736965 245.326245 
L 691.933583 245.326245 
z
" clip-path="url(#pe74c5ddf8f)" style="fill: #708090; stroke: #000000; stroke-width: 0.4; stroke-linejoin: miter"/>
   </g>
   <g id="patch_13">
    <path d="M 762.252933 264.888 
L 829.056315 264.888 
L 829.056315 387.593131 
L 762.252933 387.593131 
z
" clip-path="url(#pe74c5ddf8f)" style="fill: #708090; stroke: #000000; stroke-width: 0.4; stroke-linejoin: miter"/>
   </g>
   <g id="patch_14">
    <path d="M 832.572282 264.888 
L 899.375665 264.888 
L 899.375665 99.489264 
L 832.572282 99.489264 
z
" clip-path="url(#pe74c5ddf8f)" style="fill: #708090; stroke: #000000; stroke-width: 0.4; stroke-linejoin: miter"/>
   </g>
   <g id="patch_15">
    <path d="M 902.891632 264.888 
L 969.695014 264.888 
L 969.695014 175.867172 
L 902.891632 175.867172 
z
" clip-path="url(#pe74c5ddf8f)" style="fill: #708090; stroke: #000000; stroke-width: 0.4; stroke-linejoin: miter"/>
   </g>
   <g id="patch_16">
    <path d="M 973.210982 264.888 
L 1040.014364 264.888 
L 1040.014364 97.742275 
L 973.210982 97.742275 
z
" clip-path="url(#pe74c5ddf8f)" style="fill: #708090; stroke: #000000; stroke-width: 0.4; stroke-linejoin: miter"/>
   </g>
   <g id="patch_17">
    <path d="M 1043.530331 264.888 
L 1110.333713 264.888 
L 1110.333713 173.524629 
L 1043.530331 173.524629 
z
" clip-path="url(#pe74c5ddf8f)" style="fill: #708090; stroke: #000000; stroke-width: 0.4; stroke-linejoin: miter"/>
   </g>
   <g id="patch_18">
    <path d="M 1113.849681 264.888 
L 1180.653063 264.888 
L 1180.653063 258.420521 
L 1113.849681 258.420521 
z
" clip-path="url(#pe74c5ddf8f)" style="fill: #708090; stroke: #000000; stroke-width: 0.4; stroke-linejoin: miter"/>
   </g>
   <g id="line2d_53">
    <path d="M 56.81625 264.888 
L 1182.89625 264.888 
" clip-path="url(#pe74c5ddf8f)" style="fill: none; stroke: #000000; stroke-width: 0.4; stroke-linecap: square"/>
   </g>
   <g id="patch_19">
    <path d="M 56.81625 410.04 
L 56.81625 47.16 
" style="fill: none; stroke: #bcbcbc; stroke-width: 0.8; stroke-linejoin: miter; stroke-linecap: square"/>
   </g>
   <g id="patch_20">
    <path d="M 1182.89625 410.04 
L 1182.89625 47.16 
" style="fill: none; stroke: #bcbcbc; stroke-width: 0.8; stroke-linejoin: miter; stroke-linecap: square"/>
   </g>
   <g id="patch_21">
    <path d="M 56.81625 410.04 
L 1182.89625 410.04 
" style="fill: none; stroke: #bcbcbc; stroke-width: 0.8; stroke-linejoin: miter; stroke-linecap: square"/>
   </g>
   <g id="patch_22">
    <path d="M 56.81625 47.16 
L 1182.89625 47.16 
" style="fill: none; stroke: #bcbcbc; stroke-width: 0.8; stroke-linejoin: miter; stroke-linecap: square"/>
   </g>
   <g id="text_25">
    <!-- 52 -->
    <g transform="translate(86.900191 222.930374) scale(0.1 -0.1)">
     <use xlink:href="#Helvetica-35"/>
     <use xlink:href="#Helvetica-32" transform="translate(55.615234 0)"/>
    </g>
   </g>
   <g id="text_26">
    <!-- 67 -->
    <g transform="translate(157.21954 212.11873) scale(0.1 -0.1)">
     <use xlink:href="#Helvetica-36"/>
     <use xlink:href="#Helvetica-37" transform="translate(55.615234 0)"/>
    </g>
   </g>
   <g id="text_27">
    <!-- 120 -->
    <g transform="translate(224.758421 173.847847) scale(0.1 -0.1)">
     <use xlink:href="#Helvetica-31"/>
     <use xlink:href="#Helvetica-32" transform="translate(55.615234 0)"/>
     <use xlink:href="#Helvetica-30" transform="translate(111.230469 0)"/>
    </g>
   </g>
   <g id="text_28">
    <!-- 67 -->
    <g transform="translate(297.858239 212.207312) scale(0.1 -0.1)">
     <use xlink:href="#Helvetica-36"/>
     <use xlink:href="#Helvetica-37" transform="translate(55.615234 0)"/>
    </g>
   </g>
   <g id="text_29">
    <!-- 150 -->
    <g transform="translate(365.39712 151.766537) scale(0.1 -0.1)">
     <use xlink:href="#Helvetica-31"/>
     <use xlink:href="#Helvetica-35" transform="translate(55.615234 0)"/>
     <use xlink:href="#Helvetica-30" transform="translate(111.230469 0)"/>
    </g>
   </g>
   <g id="text_30">
    <!-- 70 -->
    <g transform="translate(438.496939 209.7083) scale(0.1 -0.1)">
     <use xlink:href="#Helvetica-37"/>
     <use xlink:href="#Helvetica-30" transform="translate(55.615234 0)"/>
    </g>
   </g>
   <g id="text_31">
    <!-- 96 -->
    <g transform="translate(508.816288 191.115387) scale(0.1 -0.1)">
     <use xlink:href="#Helvetica-39"/>
     <use xlink:href="#Helvetica-36" transform="translate(55.615234 0)"/>
    </g>
   </g>
   <g id="text_32">
    <!-- 75 -->
    <g transform="translate(579.135638 206.063145) scale(0.1 -0.1)">
     <use xlink:href="#Helvetica-37"/>
     <use xlink:href="#Helvetica-35" transform="translate(55.615234 0)"/>
    </g>
   </g>
   <g id="text_33">
    <!-- 98 -->
    <g transform="translate(649.454987 189.51189) scale(0.1 -0.1)">
     <use xlink:href="#Helvetica-39"/>
     <use xlink:href="#Helvetica-38" transform="translate(55.615234 0)"/>
    </g>
   </g>
   <g id="text_34">
    <!-- 27 -->
    <g transform="translate(719.774337 241.24187) scale(0.1 -0.1)">
     <use xlink:href="#Helvetica-32"/>
     <use xlink:href="#Helvetica-37" transform="translate(55.615234 0)"/>
    </g>
   </g>
   <g id="text_35">
    <!-- -169 -->
    <g transform="translate(785.648374 396.766568) scale(0.1 -0.1)">
     <use xlink:href="#Helvetica-2d"/>
     <use xlink:href="#Helvetica-31" transform="translate(33.300781 0)"/>
     <use xlink:href="#Helvetica-36" transform="translate(88.916016 0)"/>
     <use xlink:href="#Helvetica-39" transform="translate(144.53125 0)"/>
    </g>
   </g>
   <g id="text_36">
    <!-- 228 -->
    <g transform="translate(857.632567 95.404889) scale(0.1 -0.1)">
     <use xlink:href="#Helvetica-32"/>
     <use xlink:href="#Helvetica-32" transform="translate(55.615234 0)"/>
     <use xlink:href="#Helvetica-38" transform="translate(111.230469 0)"/>
    </g>
   </g>
   <g id="text_37">
    <!-- 123 -->
    <g transform="translate(927.951917 171.782797) scale(0.1 -0.1)">
     <use xlink:href="#Helvetica-31"/>
     <use xlink:href="#Helvetica-32" transform="translate(55.615234 0)"/>
     <use xlink:href="#Helvetica-33" transform="translate(111.230469 0)"/>
    </g>
   </g>
   <g id="text_38">
    <!-- 230 -->
    <g transform="translate(998.271266 93.6579) scale(0.1 -0.1)">
     <use xlink:href="#Helvetica-32"/>
     <use xlink:href="#Helvetica-33" transform="translate(55.615234 0)"/>
     <use xlink:href="#Helvetica-30" transform="translate(111.230469 0)"/>
    </g>
   </g>
   <g id="text_39">
    <!-- 126 -->
    <g transform="translate(1068.590616 169.440254) scale(0.1 -0.1)">
     <use xlink:href="#Helvetica-31"/>
     <use xlink:href="#Helvetica-32" transform="translate(55.615234 0)"/>
     <use xlink:href="#Helvetica-36" transform="translate(111.230469 0)"/>
    </g>
   </g>
   <g id="text_40">
    <!-- 9 -->
    <g transform="translate(1144.470903 254.336146) scale(0.1 -0.1)">
     <use xlink:href="#Helvetica-39"/>
    </g>
   </g>
  </g>
  <g id="text_41">
   <!-- India -->
   <g transform="translate(56.81625 23.008125) scale(0.12 -0.12)">
    <defs>
     <path id="Helvetica-49" d="M 628 4591 
L 1256 4591 
L 1256 0 
L 628 0 
L 628 4591 
z
" transform="scale(0.015625)"/>
     <path id="Helvetica-64" d="M 769 1634 
Q 769 1097 997 734 
Q 1225 372 1728 372 
Q 2119 372 2370 708 
Q 2622 1044 2622 1672 
Q 2622 2306 2362 2611 
Q 2103 2916 1722 2916 
Q 1297 2916 1033 2591 
Q 769 2266 769 1634 
z
M 1616 3406 
Q 2000 3406 2259 3244 
Q 2409 3150 2600 2916 
L 2600 4606 
L 3141 4606 
L 3141 0 
L 2634 0 
L 2634 466 
Q 2438 156 2169 18 
Q 1900 -119 1553 -119 
Q 994 -119 584 351 
Q 175 822 175 1603 
Q 175 2334 548 2870 
Q 922 3406 1616 3406 
z
" transform="scale(0.015625)"/>
     <path id="Helvetica-69" d="M 413 3331 
L 984 3331 
L 984 0 
L 413 0 
L 413 3331 
z
M 413 4591 
L 984 4591 
L 984 3953 
L 413 3953 
L 413 4591 
z
" transform="scale(0.015625)"/>
    </defs>
    <use xlink:href="#Helvetica-49"/>
    <use xlink:href="#Helvetica-6e" transform="translate(27.783203 0)"/>
    <use xlink:href="#Helvetica-64" transform="translate(83.398438 0)"/>
    <use xlink:href="#Helvetica-69" transform="translate(139.013672 0)"/>
    <use xlink:href="#Helvetica-61" transform="translate(161.230469 0)"/>
   </g>
  </g>
  <g id="text_42">
   <!-- Annual Change of Fossil Fuel CO₂ Emissions -->
   <g transform="translate(56.81625 39.6) scale(0.1728 -0.1728)">
    <defs>
     <path id="Helvetica-41" d="M 2844 1881 
L 2147 3909 
L 1406 1881 
L 2844 1881 
z
M 1822 4591 
L 2525 4591 
L 4191 0 
L 3509 0 
L 3044 1375 
L 1228 1375 
L 731 0 
L 94 0 
L 1822 4591 
z
" transform="scale(0.015625)"/>
     <path id="Helvetica-75" d="M 975 3347 
L 975 1125 
Q 975 869 1056 706 
Q 1206 406 1616 406 
Q 2203 406 2416 931 
Q 2531 1213 2531 1703 
L 2531 3347 
L 3094 3347 
L 3094 0 
L 2563 0 
L 2569 494 
Q 2459 303 2297 172 
Q 1975 -91 1516 -91 
Q 800 -91 541 388 
Q 400 644 400 1072 
L 400 3347 
L 975 3347 
z
M 1747 3428 
L 1747 3428 
z
" transform="scale(0.015625)"/>
     <path id="Helvetica-6c" d="M 428 4591 
L 991 4591 
L 991 0 
L 428 0 
L 428 4591 
z
" transform="scale(0.015625)"/>
     <path id="Helvetica-43" d="M 2422 4716 
Q 3294 4716 3775 4256 
Q 4256 3797 4309 3213 
L 3703 3213 
Q 3600 3656 3292 3915 
Q 2984 4175 2428 4175 
Q 1750 4175 1333 3698 
Q 916 3222 916 2238 
Q 916 1431 1292 929 
Q 1669 428 2416 428 
Q 3103 428 3463 956 
Q 3653 1234 3747 1688 
L 4353 1688 
Q 4272 963 3816 472 
Q 3269 -119 2341 -119 
Q 1541 -119 997 366 
Q 281 1006 281 2344 
Q 281 3359 819 4009 
Q 1400 4716 2422 4716 
z
M 2297 4716 
L 2297 4716 
z
" transform="scale(0.015625)"/>
     <path id="Helvetica-68" d="M 413 4606 
L 975 4606 
L 975 2894 
Q 1175 3147 1334 3250 
Q 1606 3428 2013 3428 
Q 2741 3428 3000 2919 
Q 3141 2641 3141 2147 
L 3141 0 
L 2563 0 
L 2563 2109 
Q 2563 2478 2469 2650 
Q 2316 2925 1894 2925 
Q 1544 2925 1259 2684 
Q 975 2444 975 1775 
L 975 0 
L 413 0 
L 413 4606 
z
" transform="scale(0.015625)"/>
     <path id="Helvetica-66" d="M 553 3856 
Q 566 4206 675 4369 
Q 872 4656 1434 4656 
Q 1488 4656 1544 4653 
Q 1600 4650 1672 4644 
L 1672 4131 
Q 1584 4138 1545 4139 
Q 1506 4141 1472 4141 
Q 1216 4141 1166 4008 
Q 1116 3875 1116 3331 
L 1672 3331 
L 1672 2888 
L 1109 2888 
L 1109 0 
L 553 0 
L 553 2888 
L 88 2888 
L 88 3331 
L 553 3331 
L 553 3856 
z
" transform="scale(0.015625)"/>
     <path id="Helvetica-46" d="M 547 4591 
L 3731 4591 
L 3731 4028 
L 1169 4028 
L 1169 2634 
L 3422 2634 
L 3422 2088 
L 1169 2088 
L 1169 0 
L 547 0 
L 547 4591 
z
" transform="scale(0.015625)"/>
     <path id="Helvetica-73" d="M 747 1050 
Q 772 769 888 619 
Q 1100 347 1625 347 
Q 1938 347 2175 483 
Q 2413 619 2413 903 
Q 2413 1119 2222 1231 
Q 2100 1300 1741 1391 
L 1294 1503 
Q 866 1609 663 1741 
Q 300 1969 300 2372 
Q 300 2847 642 3140 
Q 984 3434 1563 3434 
Q 2319 3434 2653 2991 
Q 2863 2709 2856 2384 
L 2325 2384 
Q 2309 2575 2191 2731 
Q 1997 2953 1519 2953 
Q 1200 2953 1036 2831 
Q 872 2709 872 2509 
Q 872 2291 1088 2159 
Q 1213 2081 1456 2022 
L 1828 1931 
Q 2434 1784 2641 1647 
Q 2969 1431 2969 969 
Q 2969 522 2630 197 
Q 2291 -128 1597 -128 
Q 850 -128 539 211 
Q 228 550 206 1050 
L 747 1050 
z
M 1578 3428 
L 1578 3428 
z
" transform="scale(0.015625)"/>
     <path id="Helvetica-4f" d="M 2469 4716 
Q 3684 4716 4269 3934 
Q 4725 3325 4725 2375 
Q 4725 1347 4203 666 
Q 3591 -134 2456 -134 
Q 1397 -134 791 566 
Q 250 1241 250 2272 
Q 250 3203 713 3866 
Q 1306 4716 2469 4716 
z
M 2531 422 
Q 3353 422 3720 1011 
Q 4088 1600 4088 2366 
Q 4088 3175 3664 3669 
Q 3241 4163 2506 4163 
Q 1794 4163 1344 3673 
Q 894 3184 894 2231 
Q 894 1469 1280 945 
Q 1666 422 2531 422 
z
M 2488 4716 
L 2488 4716 
z
" transform="scale(0.015625)"/>
     <path id="Helvetica-2082" d="M 625 -1294 
L 925 -1122 
Q 1125 -1003 1206 -922 
Q 1334 -791 1334 -625 
Q 1334 -428 1217 -314 
Q 1100 -200 906 -200 
Q 616 -200 506 -419 
Q 447 -534 441 -744 
L 153 -744 
Q 159 -450 263 -266 
Q 444 59 906 59 
Q 1291 59 1469 -148 
Q 1647 -356 1647 -613 
Q 1647 -881 1456 -1072 
Q 1347 -1181 1066 -1341 
L 850 -1459 
Q 697 -1544 609 -1619 
Q 453 -1756 413 -1922 
L 1634 -1922 
L 1634 -2188 
L 100 -2188 
Q 116 -1897 219 -1683 
Q 322 -1469 625 -1294 
z
" transform="scale(0.015625)"/>
     <path id="Helvetica-45" d="M 547 4591 
L 3894 4591 
L 3894 4028 
L 1153 4028 
L 1153 2634 
L 3688 2634 
L 3688 2103 
L 1153 2103 
L 1153 547 
L 3941 547 
L 3941 0 
L 547 0 
L 547 4591 
z
M 2244 4591 
L 2244 4591 
z
" transform="scale(0.015625)"/>
     <path id="Helvetica-6d" d="M 413 3347 
L 969 3347 
L 969 2872 
Q 1169 3119 1331 3231 
Q 1609 3422 1963 3422 
Q 2363 3422 2606 3225 
Q 2744 3113 2856 2894 
Q 3044 3163 3297 3292 
Q 3550 3422 3866 3422 
Q 4541 3422 4784 2934 
Q 4916 2672 4916 2228 
L 4916 0 
L 4331 0 
L 4331 2325 
Q 4331 2659 4164 2784 
Q 3997 2909 3756 2909 
Q 3425 2909 3186 2687 
Q 2947 2466 2947 1947 
L 2947 0 
L 2375 0 
L 2375 2184 
Q 2375 2525 2294 2681 
Q 2166 2916 1816 2916 
Q 1497 2916 1236 2669 
Q 975 2422 975 1775 
L 975 0 
L 413 0 
L 413 3347 
z
" transform="scale(0.015625)"/>
    </defs>
    <use xlink:href="#Helvetica-41"/>
    <use xlink:href="#Helvetica-6e" transform="translate(66.699219 0)"/>
    <use xlink:href="#Helvetica-6e" transform="translate(122.314453 0)"/>
    <use xlink:href="#Helvetica-75" transform="translate(177.929688 0)"/>
    <use xlink:href="#Helvetica-61" transform="translate(233.544922 0)"/>
    <use xlink:href="#Helvetica-6c" transform="translate(289.160156 0)"/>
    <use xlink:href="#Helvetica-20" transform="translate(311.376953 0)"/>
    <use xlink:href="#Helvetica-43" transform="translate(339.160156 0)"/>
    <use xlink:href="#Helvetica-68" transform="translate(411.376953 0)"/>
    <use xlink:href="#Helvetica-61" transform="translate(466.992188 0)"/>
    <use xlink:href="#Helvetica-6e" transform="translate(522.607422 0)"/>
    <use xlink:href="#Helvetica-67" transform="translate(578.222656 0)"/>
    <use xlink:href="#Helvetica-65" transform="translate(633.837891 0)"/>
    <use xlink:href="#Helvetica-20" transform="translate(689.453125 0)"/>
    <use xlink:href="#Helvetica-6f" transform="translate(717.236328 0)"/>
    <use xlink:href="#Helvetica-66" transform="translate(772.851562 0)"/>
    <use xlink:href="#Helvetica-20" transform="translate(800.634766 0)"/>
    <use xlink:href="#Helvetica-46" transform="translate(828.417969 0)"/>
    <use xlink:href="#Helvetica-6f" transform="translate(889.501953 0)"/>
    <use xlink:href="#Helvetica-73" transform="translate(945.117188 0)"/>
    <use xlink:href="#Helvetica-73" transform="translate(995.117188 0)"/>
    <use xlink:href="#Helvetica-69" transform="translate(1045.117188 0)"/>
    <use xlink:href="#Helvetica-6c" transform="translate(1067.333984 0)"/>
    <use xlink:href="#Helvetica-20" transform="translate(1089.550781 0)"/>
    <use xlink:href="#Helvetica-46" transform="translate(1117.333984 0)"/>
    <use xlink:href="#Helvetica-75" transform="translate(1178.417969 0)"/>
    <use xlink:href="#Helvetica-65" transform="translate(1234.033203 0)"/>
    <use xlink:href="#Helvetica-6c" transform="translate(1289.648438 0)"/>
    <use xlink:href="#Helvetica-20" transform="translate(1311.865234 0)"/>
    <use xlink:href="#Helvetica-43" transform="translate(1339.648438 0)"/>
    <use xlink:href="#Helvetica-4f" transform="translate(1411.865234 0)"/>
    <use xlink:href="#Helvetica-2082" transform="translate(1489.648438 0)"/>
    <use xlink:href="#Helvetica-20" transform="translate(1517.431641 0)"/>
    <use xlink:href="#Helvetica-45" transform="translate(1545.214844 0)"/>
    <use xlink:href="#Helvetica-6d" transform="translate(1611.914062 0)"/>
    <use xlink:href="#Helvetica-69" transform="translate(1695.214844 0)"/>
    <use xlink:href="#Helvetica-73" transform="translate(1717.431641 0)"/>
    <use xlink:href="#Helvetica-73" transform="translate(1767.431641 0)"/>
    <use xlink:href="#Helvetica-69" transform="translate(1817.431641 0)"/>
    <use xlink:href="#Helvetica-6f" transform="translate(1839.648438 0)"/>
    <use xlink:href="#Helvetica-6e" transform="translate(1895.263672 0)"/>
    <use xlink:href="#Helvetica-73" transform="translate(1950.878906 0)"/>
   </g>
  </g>
  <g id="text_43">
   <!-- Values are rounded to nearest whole number.  -->
   <g transform="translate(56.81625 446.255473) scale(0.0833 -0.0833)">
    <defs>
     <path id="Helvetica-56" d="M 850 4591 
L 2169 681 
L 3472 4591 
L 4169 4591 
L 2494 0 
L 1834 0 
L 163 4591 
L 850 4591 
z
" transform="scale(0.015625)"/>
     <path id="Helvetica-77" d="M 672 3347 
L 1316 709 
L 1969 3347 
L 2600 3347 
L 3256 725 
L 3941 3347 
L 4503 3347 
L 3531 0 
L 2947 0 
L 2266 2591 
L 1606 0 
L 1022 0 
L 56 3347 
L 672 3347 
z
" transform="scale(0.015625)"/>
     <path id="Helvetica-62" d="M 369 4606 
L 916 4606 
L 916 2941 
Q 1100 3181 1356 3307 
Q 1613 3434 1913 3434 
Q 2538 3434 2927 3004 
Q 3316 2575 3316 1738 
Q 3316 944 2931 419 
Q 2547 -106 1866 -106 
Q 1484 -106 1222 78 
Q 1066 188 888 428 
L 888 0 
L 369 0 
L 369 4606 
z
M 1831 391 
Q 2288 391 2514 753 
Q 2741 1116 2741 1709 
Q 2741 2238 2514 2584 
Q 2288 2931 1847 2931 
Q 1463 2931 1173 2647 
Q 884 2363 884 1709 
Q 884 1238 1003 944 
Q 1225 391 1831 391 
z
" transform="scale(0.015625)"/>
     <path id="Helvetica-2e" d="M 547 681 
L 1200 681 
L 1200 0 
L 547 0 
L 547 681 
z
" transform="scale(0.015625)"/>
    </defs>
    <use xlink:href="#Helvetica-56"/>
    <use xlink:href="#Helvetica-61" transform="translate(66.699219 0)"/>
    <use xlink:href="#Helvetica-6c" transform="translate(122.314453 0)"/>
    <use xlink:href="#Helvetica-75" transform="translate(144.53125 0)"/>
    <use xlink:href="#Helvetica-65" transform="translate(200.146484 0)"/>
    <use xlink:href="#Helvetica-73" transform="translate(255.761719 0)"/>
    <use xlink:href="#Helvetica-20" transform="translate(305.761719 0)"/>
    <use xlink:href="#Helvetica-61" transform="translate(333.544922 0)"/>
    <use xlink:href="#Helvetica-72" transform="translate(389.160156 0)"/>
    <use xlink:href="#Helvetica-65" transform="translate(422.460938 0)"/>
    <use xlink:href="#Helvetica-20" transform="translate(478.076172 0)"/>
    <use xlink:href="#Helvetica-72" transform="translate(505.859375 0)"/>
    <use xlink:href="#Helvetica-6f" transform="translate(539.160156 0)"/>
    <use xlink:href="#Helvetica-75" transform="translate(594.775391 0)"/>
    <use xlink:href="#Helvetica-6e" transform="translate(650.390625 0)"/>
    <use xlink:href="#Helvetica-64" transform="translate(706.005859 0)"/>
    <use xlink:href="#Helvetica-65" transform="translate(761.621094 0)"/>
    <use xlink:href="#Helvetica-64" transform="translate(817.236328 0)"/>
    <use xlink:href="#Helvetica-20" transform="translate(872.851562 0)"/>
    <use xlink:href="#Helvetica-74" transform="translate(900.634766 0)"/>
    <use xlink:href="#Helvetica-6f" transform="translate(928.417969 0)"/>
    <use xlink:href="#Helvetica-20" transform="translate(984.033203 0)"/>
    <use xlink:href="#Helvetica-6e" transform="translate(1011.816406 0)"/>
    <use xlink:href="#Helvetica-65" transform="translate(1067.431641 0)"/>
    <use xlink:href="#Helvetica-61" transform="translate(1123.046875 0)"/>
    <use xlink:href="#Helvetica-72" transform="translate(1178.662109 0)"/>
    <use xlink:href="#Helvetica-65" transform="translate(1211.962891 0)"/>
    <use xlink:href="#Helvetica-73" transform="translate(1267.578125 0)"/>
    <use xlink:href="#Helvetica-74" transform="translate(1317.578125 0)"/>
    <use xlink:href="#Helvetica-20" transform="translate(1345.361328 0)"/>
    <use xlink:href="#Helvetica-77" transform="translate(1373.144531 0)"/>
    <use xlink:href="#Helvetica-68" transform="translate(1445.361328 0)"/>
    <use xlink:href="#Helvetica-6f" transform="translate(1500.976562 0)"/>
    <use xlink:href="#Helvetica-6c" transform="translate(1556.591797 0)"/>
    <use xlink:href="#Helvetica-65" transform="translate(1578.808594 0)"/>
    <use xlink:href="#Helvetica-20" transform="translate(1634.423828 0)"/>
    <use xlink:href="#Helvetica-6e" transform="translate(1662.207031 0)"/>
    <use xlink:href="#Helvetica-75" transform="translate(1717.822266 0)"/>
    <use xlink:href="#Helvetica-6d" transform="translate(1773.4375 0)"/>
    <use xlink:href="#Helvetica-62" transform="translate(1856.738281 0)"/>
    <use xlink:href="#Helvetica-65" transform="translate(1912.353516 0)"/>
    <use xlink:href="#Helvetica-72" transform="translate(1967.96875 0)"/>
    <use xlink:href="#Helvetica-2e" transform="translate(2001.269531 0)"/>
    <use xlink:href="#Helvetica-20" transform="translate(2029.052734 0)"/>
   </g>
   <!-- By Shane White, whitesha@protonmail.com, https://github.com/shanewhi/world-energy-data. -->
   <g transform="translate(56.81625 455.35756) scale(0.0833 -0.0833)">
    <defs>
     <path id="Helvetica-42" d="M 2213 2650 
Q 2606 2650 2825 2759 
Q 3169 2931 3169 3378 
Q 3169 3828 2803 3984 
Q 2597 4072 2191 4072 
L 1081 4072 
L 1081 2650 
L 2213 2650 
z
M 2422 531 
Q 2994 531 3238 863 
Q 3391 1072 3391 1369 
Q 3391 1869 2944 2050 
Q 2706 2147 2316 2147 
L 1081 2147 
L 1081 531 
L 2422 531 
z
M 472 4591 
L 2444 4591 
Q 3250 4591 3591 4109 
Q 3791 3825 3791 3453 
Q 3791 3019 3544 2741 
Q 3416 2594 3175 2472 
Q 3528 2338 3703 2169 
Q 4013 1869 4013 1341 
Q 4013 897 3734 538 
Q 3319 0 2413 0 
L 472 0 
L 472 4591 
z
" transform="scale(0.015625)"/>
     <path id="Helvetica-53" d="M 894 1481 
Q 916 1091 1078 847 
Q 1388 391 2169 391 
Q 2519 391 2806 491 
Q 3363 684 3363 1184 
Q 3363 1559 3128 1719 
Q 2891 1875 2384 1991 
L 1763 2131 
Q 1153 2269 900 2434 
Q 463 2722 463 3294 
Q 463 3913 891 4309 
Q 1319 4706 2103 4706 
Q 2825 4706 3329 4357 
Q 3834 4009 3834 3244 
L 3250 3244 
Q 3203 3613 3050 3809 
Q 2766 4169 2084 4169 
Q 1534 4169 1293 3937 
Q 1053 3706 1053 3400 
Q 1053 3063 1334 2906 
Q 1519 2806 2169 2656 
L 2813 2509 
Q 3278 2403 3531 2219 
Q 3969 1897 3969 1284 
Q 3969 522 3414 194 
Q 2859 -134 2125 -134 
Q 1269 -134 784 303 
Q 300 738 309 1481 
L 894 1481 
z
M 2150 4716 
L 2150 4716 
z
" transform="scale(0.015625)"/>
     <path id="Helvetica-57" d="M 791 4591 
L 1656 856 
L 2694 4591 
L 3369 4591 
L 4406 856 
L 5272 4591 
L 5953 4591 
L 4747 0 
L 4094 0 
L 3034 3806 
L 1969 0 
L 1316 0 
L 116 4591 
L 791 4591 
z
" transform="scale(0.015625)"/>
     <path id="Helvetica-2c" d="M 531 -653 
Q 747 -616 834 -350 
Q 881 -209 881 -78 
Q 881 -56 879 -39 
Q 878 -22 872 0 
L 531 0 
L 531 681 
L 1200 681 
L 1200 50 
Q 1200 -322 1050 -603 
Q 900 -884 531 -950 
L 531 -653 
z
" transform="scale(0.015625)"/>
     <path id="Helvetica-40" d="M 3903 2791 
Q 3903 2984 3773 3139 
Q 3644 3294 3416 3294 
Q 3059 3294 2798 2873 
Q 2538 2453 2538 2038 
Q 2538 1731 2672 1570 
Q 2806 1409 3009 1409 
Q 3431 1409 3667 1901 
Q 3903 2394 3903 2791 
z
M 3281 -134 
Q 1975 -134 1269 681 
Q 703 1334 703 2191 
Q 703 3209 1391 3922 
Q 2153 4716 3438 4716 
Q 4550 4716 5188 4153 
Q 5784 3622 5784 2775 
Q 5784 2063 5357 1558 
Q 4931 1053 4403 1053 
Q 4094 1053 3947 1201 
Q 3800 1350 3800 1559 
Q 3800 1594 3806 1631 
Q 3813 1669 3822 1709 
Q 3656 1350 3403 1201 
Q 3150 1053 2881 1053 
Q 2497 1053 2258 1331 
Q 2019 1609 2019 2047 
Q 2019 2669 2426 3144 
Q 2834 3619 3303 3619 
Q 3622 3619 3830 3434 
Q 4038 3250 4050 2991 
L 4206 3516 
L 4666 3516 
L 4250 2147 
Q 4203 1988 4181 1891 
Q 4159 1794 4159 1719 
Q 4159 1578 4245 1514 
Q 4331 1450 4441 1450 
Q 4797 1450 5080 1822 
Q 5363 2194 5363 2794 
Q 5363 3519 4856 3933 
Q 4350 4347 3494 4347 
Q 2306 4347 1678 3653 
Q 1141 3063 1141 2169 
Q 1141 1388 1653 856 
Q 2253 228 3363 228 
Q 3881 228 4328 392 
Q 4775 556 5147 834 
L 5353 553 
Q 5072 303 4512 84 
Q 3953 -134 3281 -134 
z
" transform="scale(0.015625)"/>
     <path id="Helvetica-63" d="M 1703 3444 
Q 2269 3444 2623 3169 
Q 2978 2894 3050 2222 
L 2503 2222 
Q 2453 2531 2275 2736 
Q 2097 2941 1703 2941 
Q 1166 2941 934 2416 
Q 784 2075 784 1575 
Q 784 1072 996 728 
Q 1209 384 1666 384 
Q 2016 384 2220 598 
Q 2425 813 2503 1184 
L 3050 1184 
Q 2956 519 2581 211 
Q 2206 -97 1622 -97 
Q 966 -97 575 383 
Q 184 863 184 1581 
Q 184 2463 612 2953 
Q 1041 3444 1703 3444 
z
M 1616 3428 
L 1616 3428 
z
" transform="scale(0.015625)"/>
     <path id="Helvetica-3a" d="M 709 3303 
L 1363 3303 
L 1363 2622 
L 709 2622 
L 709 3303 
z
M 709 681 
L 1363 681 
L 1363 0 
L 709 0 
L 709 681 
z
" transform="scale(0.015625)"/>
    </defs>
    <use xlink:href="#Helvetica-42"/>
    <use xlink:href="#Helvetica-79" transform="translate(66.699219 0)"/>
    <use xlink:href="#Helvetica-20" transform="translate(116.699219 0)"/>
    <use xlink:href="#Helvetica-53" transform="translate(144.482422 0)"/>
    <use xlink:href="#Helvetica-68" transform="translate(211.181641 0)"/>
    <use xlink:href="#Helvetica-61" transform="translate(266.796875 0)"/>
    <use xlink:href="#Helvetica-6e" transform="translate(322.412109 0)"/>
    <use xlink:href="#Helvetica-65" transform="translate(378.027344 0)"/>
    <use xlink:href="#Helvetica-20" transform="translate(433.642578 0)"/>
    <use xlink:href="#Helvetica-57" transform="translate(461.425781 0)"/>
    <use xlink:href="#Helvetica-68" transform="translate(555.810547 0)"/>
    <use xlink:href="#Helvetica-69" transform="translate(611.425781 0)"/>
    <use xlink:href="#Helvetica-74" transform="translate(633.642578 0)"/>
    <use xlink:href="#Helvetica-65" transform="translate(661.425781 0)"/>
    <use xlink:href="#Helvetica-2c" transform="translate(717.041016 0)"/>
    <use xlink:href="#Helvetica-20" transform="translate(744.824219 0)"/>
    <use xlink:href="#Helvetica-77" transform="translate(772.607422 0)"/>
    <use xlink:href="#Helvetica-68" transform="translate(844.824219 0)"/>
    <use xlink:href="#Helvetica-69" transform="translate(900.439453 0)"/>
    <use xlink:href="#Helvetica-74" transform="translate(922.65625 0)"/>
    <use xlink:href="#Helvetica-65" transform="translate(950.439453 0)"/>
    <use xlink:href="#Helvetica-73" transform="translate(1006.054688 0)"/>
    <use xlink:href="#Helvetica-68" transform="translate(1056.054688 0)"/>
    <use xlink:href="#Helvetica-61" transform="translate(1111.669922 0)"/>
    <use xlink:href="#Helvetica-40" transform="translate(1167.285156 0)"/>
    <use xlink:href="#Helvetica-70" transform="translate(1268.798828 0)"/>
    <use xlink:href="#Helvetica-72" transform="translate(1324.414062 0)"/>
    <use xlink:href="#Helvetica-6f" transform="translate(1357.714844 0)"/>
    <use xlink:href="#Helvetica-74" transform="translate(1413.330078 0)"/>
    <use xlink:href="#Helvetica-6f" transform="translate(1441.113281 0)"/>
    <use xlink:href="#Helvetica-6e" transform="translate(1496.728516 0)"/>
    <use xlink:href="#Helvetica-6d" transform="translate(1552.34375 0)"/>
    <use xlink:href="#Helvetica-61" transform="translate(1635.644531 0)"/>
    <use xlink:href="#Helvetica-69" transform="translate(1691.259766 0)"/>
    <use xlink:href="#Helvetica-6c" transform="translate(1713.476562 0)"/>
    <use xlink:href="#Helvetica-2e" transform="translate(1735.693359 0)"/>
    <use xlink:href="#Helvetica-63" transform="translate(1763.476562 0)"/>
    <use xlink:href="#Helvetica-6f" transform="translate(1813.476562 0)"/>
    <use xlink:href="#Helvetica-6d" transform="translate(1869.091797 0)"/>
    <use xlink:href="#Helvetica-2c" transform="translate(1952.392578 0)"/>
    <use xlink:href="#Helvetica-20" transform="translate(1980.175781 0)"/>
    <use xlink:href="#Helvetica-68" transform="translate(2007.958984 0)"/>
    <use xlink:href="#Helvetica-74" transform="translate(2063.574219 0)"/>
    <use xlink:href="#Helvetica-74" transform="translate(2091.357422 0)"/>
    <use xlink:href="#Helvetica-70" transform="translate(2119.140625 0)"/>
    <use xlink:href="#Helvetica-73" transform="translate(2174.755859 0)"/>
    <use xlink:href="#Helvetica-3a" transform="translate(2224.755859 0)"/>
    <use xlink:href="#Helvetica-2f" transform="translate(2252.539062 0)"/>
    <use xlink:href="#Helvetica-2f" transform="translate(2280.322266 0)"/>
    <use xlink:href="#Helvetica-67" transform="translate(2308.105469 0)"/>
    <use xlink:href="#Helvetica-69" transform="translate(2363.720703 0)"/>
    <use xlink:href="#Helvetica-74" transform="translate(2385.9375 0)"/>
    <use xlink:href="#Helvetica-68" transform="translate(2413.720703 0)"/>
    <use xlink:href="#Helvetica-75" transform="translate(2469.335938 0)"/>
    <use xlink:href="#Helvetica-62" transform="translate(2524.951172 0)"/>
    <use xlink:href="#Helvetica-2e" transform="translate(2580.566406 0)"/>
    <use xlink:href="#Helvetica-63" transform="translate(2608.349609 0)"/>
    <use xlink:href="#Helvetica-6f" transform="translate(2658.349609 0)"/>
    <use xlink:href="#Helvetica-6d" transform="translate(2713.964844 0)"/>
    <use xlink:href="#Helvetica-2f" transform="translate(2797.265625 0)"/>
    <use xlink:href="#Helvetica-73" transform="translate(2825.048828 0)"/>
    <use xlink:href="#Helvetica-68" transform="translate(2875.048828 0)"/>
    <use xlink:href="#Helvetica-61" transform="translate(2930.664062 0)"/>
    <use xlink:href="#Helvetica-6e" transform="translate(2986.279297 0)"/>
    <use xlink:href="#Helvetica-65" transform="translate(3041.894531 0)"/>
    <use xlink:href="#Helvetica-77" transform="translate(3097.509766 0)"/>
    <use xlink:href="#Helvetica-68" transform="translate(3169.726562 0)"/>
    <use xlink:href="#Helvetica-69" transform="translate(3225.341797 0)"/>
    <use xlink:href="#Helvetica-2f" transform="translate(3247.558594 0)"/>
    <use xlink:href="#Helvetica-77" transform="translate(3275.341797 0)"/>
    <use xlink:href="#Helvetica-6f" transform="translate(3347.558594 0)"/>
    <use xlink:href="#Helvetica-72" transform="translate(3403.173828 0)"/>
    <use xlink:href="#Helvetica-6c" transform="translate(3436.474609 0)"/>
    <use xlink:href="#Helvetica-64" transform="translate(3458.691406 0)"/>
    <use xlink:href="#Helvetica-2d" transform="translate(3514.306641 0)"/>
    <use xlink:href="#Helvetica-65" transform="translate(3547.607422 0)"/>
    <use xlink:href="#Helvetica-6e" transform="translate(3603.222656 0)"/>
    <use xlink:href="#Helvetica-65" transform="translate(3658.837891 0)"/>
    <use xlink:href="#Helvetica-72" transform="translate(3714.453125 0)"/>
    <use xlink:href="#Helvetica-67" transform="translate(3747.753906 0)"/>
    <use xlink:href="#Helvetica-79" transform="translate(3803.369141 0)"/>
    <use xlink:href="#Helvetica-2d" transform="translate(3853.369141 0)"/>
    <use xlink:href="#Helvetica-64" transform="translate(3886.669922 0)"/>
    <use xlink:href="#Helvetica-61" transform="translate(3942.285156 0)"/>
    <use xlink:href="#Helvetica-74" transform="translate(3997.900391 0)"/>
    <use xlink:href="#Helvetica-61" transform="translate(4025.683594 0)"/>
    <use xlink:href="#Helvetica-2e" transform="translate(4081.298828 0)"/>
   </g>
   <!-- Data: The Energy Institute Statistical Review of World Energy 2024, https://www.energyinst.org/statistical-review/resources-and-data-downloads. -->
   <g transform="translate(56.81625 464.566375) scale(0.0833 -0.0833)">
    <defs>
     <path id="Helvetica-44" d="M 2250 531 
Q 2566 531 2769 597 
Q 3131 719 3363 1066 
Q 3547 1344 3628 1778 
Q 3675 2038 3675 2259 
Q 3675 3113 3336 3584 
Q 2997 4056 2244 4056 
L 1141 4056 
L 1141 531 
L 2250 531 
z
M 516 4591 
L 2375 4591 
Q 3322 4591 3844 3919 
Q 4309 3313 4309 2366 
Q 4309 1634 4034 1044 
Q 3550 0 2369 0 
L 516 0 
L 516 4591 
z
" transform="scale(0.015625)"/>
     <path id="Helvetica-54" d="M 3828 4591 
L 3828 4044 
L 2281 4044 
L 2281 0 
L 1650 0 
L 1650 4044 
L 103 4044 
L 103 4591 
L 3828 4591 
z
" transform="scale(0.015625)"/>
     <path id="Helvetica-52" d="M 2622 2488 
Q 3059 2488 3314 2663 
Q 3569 2838 3569 3294 
Q 3569 3784 3213 3963 
Q 3022 4056 2703 4056 
L 1184 4056 
L 1184 2488 
L 2622 2488 
z
M 563 4591 
L 2688 4591 
Q 3213 4591 3553 4438 
Q 4200 4144 4200 3353 
Q 4200 2941 4029 2678 
Q 3859 2416 3553 2256 
Q 3822 2147 3958 1969 
Q 4094 1791 4109 1391 
L 4131 775 
Q 4141 513 4175 384 
Q 4231 166 4375 103 
L 4375 0 
L 3613 0 
Q 3581 59 3562 153 
Q 3544 247 3531 516 
L 3494 1281 
Q 3472 1731 3159 1884 
Q 2981 1969 2600 1969 
L 1184 1969 
L 1184 0 
L 563 0 
L 563 4591 
z
" transform="scale(0.015625)"/>
     <path id="Helvetica-76" d="M 688 3347 
L 1581 622 
L 2516 3347 
L 3131 3347 
L 1869 0 
L 1269 0 
L 34 3347 
L 688 3347 
z
" transform="scale(0.015625)"/>
    </defs>
    <use xlink:href="#Helvetica-44"/>
    <use xlink:href="#Helvetica-61" transform="translate(72.216797 0)"/>
    <use xlink:href="#Helvetica-74" transform="translate(127.832031 0)"/>
    <use xlink:href="#Helvetica-61" transform="translate(155.615234 0)"/>
    <use xlink:href="#Helvetica-3a" transform="translate(211.230469 0)"/>
    <use xlink:href="#Helvetica-20" transform="translate(239.013672 0)"/>
    <use xlink:href="#Helvetica-54" transform="translate(266.796875 0)"/>
    <use xlink:href="#Helvetica-68" transform="translate(327.880859 0)"/>
    <use xlink:href="#Helvetica-65" transform="translate(383.496094 0)"/>
    <use xlink:href="#Helvetica-20" transform="translate(439.111328 0)"/>
    <use xlink:href="#Helvetica-45" transform="translate(466.894531 0)"/>
    <use xlink:href="#Helvetica-6e" transform="translate(533.59375 0)"/>
    <use xlink:href="#Helvetica-65" transform="translate(589.208984 0)"/>
    <use xlink:href="#Helvetica-72" transform="translate(644.824219 0)"/>
    <use xlink:href="#Helvetica-67" transform="translate(678.125 0)"/>
    <use xlink:href="#Helvetica-79" transform="translate(733.740234 0)"/>
    <use xlink:href="#Helvetica-20" transform="translate(783.740234 0)"/>
    <use xlink:href="#Helvetica-49" transform="translate(811.523438 0)"/>
    <use xlink:href="#Helvetica-6e" transform="translate(839.306641 0)"/>
    <use xlink:href="#Helvetica-73" transform="translate(894.921875 0)"/>
    <use xlink:href="#Helvetica-74" transform="translate(944.921875 0)"/>
    <use xlink:href="#Helvetica-69" transform="translate(972.705078 0)"/>
    <use xlink:href="#Helvetica-74" transform="translate(994.921875 0)"/>
    <use xlink:href="#Helvetica-75" transform="translate(1022.705078 0)"/>
    <use xlink:href="#Helvetica-74" transform="translate(1078.320312 0)"/>
    <use xlink:href="#Helvetica-65" transform="translate(1106.103516 0)"/>
    <use xlink:href="#Helvetica-20" transform="translate(1161.71875 0)"/>
    <use xlink:href="#Helvetica-53" transform="translate(1189.501953 0)"/>
    <use xlink:href="#Helvetica-74" transform="translate(1256.201172 0)"/>
    <use xlink:href="#Helvetica-61" transform="translate(1283.984375 0)"/>
    <use xlink:href="#Helvetica-74" transform="translate(1339.599609 0)"/>
    <use xlink:href="#Helvetica-69" transform="translate(1367.382812 0)"/>
    <use xlink:href="#Helvetica-73" transform="translate(1389.599609 0)"/>
    <use xlink:href="#Helvetica-74" transform="translate(1439.599609 0)"/>
    <use xlink:href="#Helvetica-69" transform="translate(1467.382812 0)"/>
    <use xlink:href="#Helvetica-63" transform="translate(1489.599609 0)"/>
    <use xlink:href="#Helvetica-61" transform="translate(1539.599609 0)"/>
    <use xlink:href="#Helvetica-6c" transform="translate(1595.214844 0)"/>
    <use xlink:href="#Helvetica-20" transform="translate(1617.431641 0)"/>
    <use xlink:href="#Helvetica-52" transform="translate(1645.214844 0)"/>
    <use xlink:href="#Helvetica-65" transform="translate(1717.431641 0)"/>
    <use xlink:href="#Helvetica-76" transform="translate(1773.046875 0)"/>
    <use xlink:href="#Helvetica-69" transform="translate(1823.046875 0)"/>
    <use xlink:href="#Helvetica-65" transform="translate(1845.263672 0)"/>
    <use xlink:href="#Helvetica-77" transform="translate(1900.878906 0)"/>
    <use xlink:href="#Helvetica-20" transform="translate(1973.095703 0)"/>
    <use xlink:href="#Helvetica-6f" transform="translate(2000.878906 0)"/>
    <use xlink:href="#Helvetica-66" transform="translate(2056.494141 0)"/>
    <use xlink:href="#Helvetica-20" transform="translate(2084.277344 0)"/>
    <use xlink:href="#Helvetica-57" transform="translate(2112.060547 0)"/>
    <use xlink:href="#Helvetica-6f" transform="translate(2206.445312 0)"/>
    <use xlink:href="#Helvetica-72" transform="translate(2262.060547 0)"/>
    <use xlink:href="#Helvetica-6c" transform="translate(2295.361328 0)"/>
    <use xlink:href="#Helvetica-64" transform="translate(2317.578125 0)"/>
    <use xlink:href="#Helvetica-20" transform="translate(2373.193359 0)"/>
    <use xlink:href="#Helvetica-45" transform="translate(2400.976562 0)"/>
    <use xlink:href="#Helvetica-6e" transform="translate(2467.675781 0)"/>
    <use xlink:href="#Helvetica-65" transform="translate(2523.291016 0)"/>
    <use xlink:href="#Helvetica-72" transform="translate(2578.90625 0)"/>
    <use xlink:href="#Helvetica-67" transform="translate(2612.207031 0)"/>
    <use xlink:href="#Helvetica-79" transform="translate(2667.822266 0)"/>
    <use xlink:href="#Helvetica-20" transform="translate(2717.822266 0)"/>
    <use xlink:href="#Helvetica-32" transform="translate(2745.605469 0)"/>
    <use xlink:href="#Helvetica-30" transform="translate(2801.220703 0)"/>
    <use xlink:href="#Helvetica-32" transform="translate(2856.835938 0)"/>
    <use xlink:href="#Helvetica-34" transform="translate(2912.451172 0)"/>
    <use xlink:href="#Helvetica-2c" transform="translate(2968.066406 0)"/>
    <use xlink:href="#Helvetica-20" transform="translate(2995.849609 0)"/>
    <use xlink:href="#Helvetica-68" transform="translate(3023.632812 0)"/>
    <use xlink:href="#Helvetica-74" transform="translate(3079.248047 0)"/>
    <use xlink:href="#Helvetica-74" transform="translate(3107.03125 0)"/>
    <use xlink:href="#Helvetica-70" transform="translate(3134.814453 0)"/>
    <use xlink:href="#Helvetica-73" transform="translate(3190.429688 0)"/>
    <use xlink:href="#Helvetica-3a" transform="translate(3240.429688 0)"/>
    <use xlink:href="#Helvetica-2f" transform="translate(3268.212891 0)"/>
    <use xlink:href="#Helvetica-2f" transform="translate(3295.996094 0)"/>
    <use xlink:href="#Helvetica-77" transform="translate(3323.779297 0)"/>
    <use xlink:href="#Helvetica-77" transform="translate(3395.996094 0)"/>
    <use xlink:href="#Helvetica-77" transform="translate(3468.212891 0)"/>
    <use xlink:href="#Helvetica-2e" transform="translate(3540.429688 0)"/>
    <use xlink:href="#Helvetica-65" transform="translate(3568.212891 0)"/>
    <use xlink:href="#Helvetica-6e" transform="translate(3623.828125 0)"/>
    <use xlink:href="#Helvetica-65" transform="translate(3679.443359 0)"/>
    <use xlink:href="#Helvetica-72" transform="translate(3735.058594 0)"/>
    <use xlink:href="#Helvetica-67" transform="translate(3768.359375 0)"/>
    <use xlink:href="#Helvetica-79" transform="translate(3823.974609 0)"/>
    <use xlink:href="#Helvetica-69" transform="translate(3873.974609 0)"/>
    <use xlink:href="#Helvetica-6e" transform="translate(3896.191406 0)"/>
    <use xlink:href="#Helvetica-73" transform="translate(3951.806641 0)"/>
    <use xlink:href="#Helvetica-74" transform="translate(4001.806641 0)"/>
    <use xlink:href="#Helvetica-2e" transform="translate(4029.589844 0)"/>
    <use xlink:href="#Helvetica-6f" transform="translate(4057.373047 0)"/>
    <use xlink:href="#Helvetica-72" transform="translate(4112.988281 0)"/>
    <use xlink:href="#Helvetica-67" transform="translate(4146.289062 0)"/>
    <use xlink:href="#Helvetica-2f" transform="translate(4201.904297 0)"/>
    <use xlink:href="#Helvetica-73" transform="translate(4229.6875 0)"/>
    <use xlink:href="#Helvetica-74" transform="translate(4279.6875 0)"/>
    <use xlink:href="#Helvetica-61" transform="translate(4307.470703 0)"/>
    <use xlink:href="#Helvetica-74" transform="translate(4363.085938 0)"/>
    <use xlink:href="#Helvetica-69" transform="translate(4390.869141 0)"/>
    <use xlink:href="#Helvetica-73" transform="translate(4413.085938 0)"/>
    <use xlink:href="#Helvetica-74" transform="translate(4463.085938 0)"/>
    <use xlink:href="#Helvetica-69" transform="translate(4490.869141 0)"/>
    <use xlink:href="#Helvetica-63" transform="translate(4513.085938 0)"/>
    <use xlink:href="#Helvetica-61" transform="translate(4563.085938 0)"/>
    <use xlink:href="#Helvetica-6c" transform="translate(4618.701172 0)"/>
    <use xlink:href="#Helvetica-2d" transform="translate(4640.917969 0)"/>
    <use xlink:href="#Helvetica-72" transform="translate(4674.21875 0)"/>
    <use xlink:href="#Helvetica-65" transform="translate(4707.519531 0)"/>
    <use xlink:href="#Helvetica-76" transform="translate(4763.134766 0)"/>
    <use xlink:href="#Helvetica-69" transform="translate(4813.134766 0)"/>
    <use xlink:href="#Helvetica-65" transform="translate(4835.351562 0)"/>
    <use xlink:href="#Helvetica-77" transform="translate(4890.966797 0)"/>
    <use xlink:href="#Helvetica-2f" transform="translate(4963.183594 0)"/>
    <use xlink:href="#Helvetica-72" transform="translate(4990.966797 0)"/>
    <use xlink:href="#Helvetica-65" transform="translate(5024.267578 0)"/>
    <use xlink:href="#Helvetica-73" transform="translate(5079.882812 0)"/>
    <use xlink:href="#Helvetica-6f" transform="translate(5129.882812 0)"/>
    <use xlink:href="#Helvetica-75" transform="translate(5185.498047 0)"/>
    <use xlink:href="#Helvetica-72" transform="translate(5241.113281 0)"/>
    <use xlink:href="#Helvetica-63" transform="translate(5274.414062 0)"/>
    <use xlink:href="#Helvetica-65" transform="translate(5324.414062 0)"/>
    <use xlink:href="#Helvetica-73" transform="translate(5380.029297 0)"/>
    <use xlink:href="#Helvetica-2d" transform="translate(5430.029297 0)"/>
    <use xlink:href="#Helvetica-61" transform="translate(5463.330078 0)"/>
    <use xlink:href="#Helvetica-6e" transform="translate(5518.945312 0)"/>
    <use xlink:href="#Helvetica-64" transform="translate(5574.560547 0)"/>
    <use xlink:href="#Helvetica-2d" transform="translate(5630.175781 0)"/>
    <use xlink:href="#Helvetica-64" transform="translate(5663.476562 0)"/>
    <use xlink:href="#Helvetica-61" transform="translate(5719.091797 0)"/>
    <use xlink:href="#Helvetica-74" transform="translate(5774.707031 0)"/>
    <use xlink:href="#Helvetica-61" transform="translate(5802.490234 0)"/>
    <use xlink:href="#Helvetica-2d" transform="translate(5858.105469 0)"/>
    <use xlink:href="#Helvetica-64" transform="translate(5891.40625 0)"/>
    <use xlink:href="#Helvetica-6f" transform="translate(5947.021484 0)"/>
    <use xlink:href="#Helvetica-77" transform="translate(6002.636719 0)"/>
    <use xlink:href="#Helvetica-6e" transform="translate(6074.853516 0)"/>
    <use xlink:href="#Helvetica-6c" transform="translate(6130.46875 0)"/>
    <use xlink:href="#Helvetica-6f" transform="translate(6152.685547 0)"/>
    <use xlink:href="#Helvetica-61" transform="translate(6208.300781 0)"/>
    <use xlink:href="#Helvetica-64" transform="translate(6263.916016 0)"/>
    <use xlink:href="#Helvetica-73" transform="translate(6319.53125 0)"/>
    <use xlink:href="#Helvetica-2e" transform="translate(6369.53125 0)"/>
   </g>
  </g>
 </g>
 <defs>
  <clipPath id="pe74c5ddf8f">
   <rect x="56.81625" y="47.16" width="1126.08" height="362.88"/>
  </clipPath>
 </defs>
</svg>
